<?xml version="1.0" standalone="no"?>
<!DOCTYPE svg PUBLIC "-//W3C//DTD SVG 1.1//EN" "http://www.w3.org/Graphics/SVG/1.1/DTD/svg11.dtd" >
<svg xmlns="http://www.w3.org/2000/svg">
<metadata></metadata>
<defs>
<font id="plfontregular" horiz-adv-x="1843" >
<font-face units-per-em="2048" ascent="1536" descent="-512" />
<missing-glyph horiz-adv-x="512" />
<glyph horiz-adv-x="0" />
<glyph horiz-adv-x="0" />
<glyph unicode="&#xd;" horiz-adv-x="512" />
<glyph unicode=" "  horiz-adv-x="512" />
<glyph unicode="&#x09;" horiz-adv-x="512" />
<glyph unicode="&#xa0;" horiz-adv-x="512" />
<glyph unicode="o" horiz-adv-x="1591" />
<glyph unicode="&#xa8;" horiz-adv-x="2048" />
<glyph unicode="&#xa9;" horiz-adv-x="2048" />
<glyph unicode="&#xae;" horiz-adv-x="2048" />
<glyph unicode="&#xb4;" horiz-adv-x="2048" />
<glyph unicode="&#xcd;" horiz-adv-x="2048" />
<glyph unicode="&#x2000;" horiz-adv-x="784" />
<glyph unicode="&#x2001;" horiz-adv-x="1569" />
<glyph unicode="&#x2002;" horiz-adv-x="784" />
<glyph unicode="&#x2003;" horiz-adv-x="1569" />
<glyph unicode="&#x2004;" horiz-adv-x="523" />
<glyph unicode="&#x2005;" horiz-adv-x="392" />
<glyph unicode="&#x2006;" horiz-adv-x="261" />
<glyph unicode="&#x2007;" horiz-adv-x="261" />
<glyph unicode="&#x2008;" horiz-adv-x="196" />
<glyph unicode="&#x2009;" horiz-adv-x="313" />
<glyph unicode="&#x200a;" horiz-adv-x="87" />
<glyph unicode="&#x202f;" horiz-adv-x="313" />
<glyph unicode="&#x203a;" horiz-adv-x="2048" />
<glyph unicode="&#x205f;" horiz-adv-x="392" />
<glyph unicode="&#x2122;" horiz-adv-x="2048" />
<glyph unicode="&#x221e;" horiz-adv-x="2048" />
<glyph unicode="&#xe000;" horiz-adv-x="500" d="M0 0z" />
<glyph unicode="&#xf000;" horiz-adv-x="1536" d="M6 1489q-20 -47 17 -84l610 -610v-641h-250q-31 0 -53.5 -22.5t-22.5 -53.5q0 -33 22.5 -55.5t53.5 -22.5h768q33 0 55.5 22.5t22.5 55.5q0 31 -22.5 53.5t-55.5 22.5h-248v641l610 610q37 37 16.5 84t-71.5 47h-1382q-50 0 -70 -47z" />
<glyph unicode="&#xf001;" horiz-adv-x="1488" d="M0 213q0 -113 100 -180q94 -64 205 -64q112 0 204 64q99 67 99 180v815l678 195v-537q-56 14 -102 14q-113 0 -204 -63q-99 -69 -99 -180q0 -113 99 -180q92 -64 204 -64q110 0 205 64q100 67 100 180v1028q0 35 -23.5 58.5t-58.5 23.5q-8 0 -74 -18q-217 -61 -375 -107 q-175 -51 -215 -62q-36 -11 -95.5 -28.5t-82.5 -24.5q-85 -25 -100 -29q-27 -8 -43 -29t-16 -48v-779q-55 15 -101 15q-111 0 -205 -64q-100 -68 -100 -180z" />
<glyph unicode="&#xf002;" horiz-adv-x="1597" d="M0 901q0 -135 51.5 -256.5t144.5 -213.5q93 -93 214 -144t256 -51q197 0 366 110l359 -358q18 -19 47 -19q32 0 96 64q63 61 63 96q0 29 -18 47l-358 359q110 167 110 366q0 135 -51 256.5t-144 213.5q-94 93 -214.5 144.5t-255.5 51.5t-255.5 -51.5t-214.5 -144.5 q-93 -92 -144.5 -213.5t-51.5 -256.5zM266 901q0 162 118 282q117 117 282 117q164 0 281 -117q118 -120 118 -282q0 -166 -118 -282q-117 -117 -281 -117q-165 0 -282 117q-118 116 -118 282zM414 901q0 -21 14 -35t37 -14q20 0 34.5 14.5t14.5 34.5q0 64 44.5 108 t107.5 44q20 0 34.5 14.5t14.5 34.5q0 22 -14.5 36.5t-34.5 14.5q-106 0 -178 -74q-74 -76 -74 -178z" />
<glyph unicode="&#xf003;" d="M0 115q0 -47 34 -81t81 -34h1614q47 0 80.5 34t33.5 81v1306q0 47 -33.5 81t-80.5 34h-1614q-47 0 -81 -34t-34 -81v-1306zM154 154v852q31 -33 57 -50q305 -227 424 -323q53 -43 87.5 -67t90.5 -48t107 -24q53 0 110.5 24t90 47.5t87.5 67.5q107 86 212 164 q36 26 106.5 79t105.5 80q29 21 58 50v-852h-1536zM154 1317v65h1536v-65q0 -55 -50 -132q-46 -68 -98 -106q-299 -225 -399 -303q-7 -6 -23.5 -18.5t-24.5 -18.5q-29 -23 -57 -42q-71 -50 -114 -50h-4q-43 0 -114 50q-34 23 -106 79q-121 94 -199 153q-75 55 -200 150 q-55 42 -97 106q-50 74 -50 132z" />
<glyph unicode="&#xf004;" horiz-adv-x="1802" d="M0 1073q0 -123 69 -253q60 -114 160 -214l615 -614q26 -23 57 -23q32 0 55 23l615 612q99 99 162 215q69 128 69 254q0 229 -130 361q-135 133 -359 133q-107 0 -224 -67q-98 -56 -188 -146q-103 97 -187 146q-116 67 -227 67q-222 0 -355 -133q-132 -132 -132 -361z" />
<glyph unicode="&#xf005;" horiz-adv-x="1675" d="M1 959.5q-9 -27.5 26 -60.5l364 -356l-86 -504q-8 -45 15.5 -62.5t64.5 5.5l453 237l452 -237q41 -23 64.5 -5.5t15.5 62.5l-86 504l367 356q32 33 23 60.5t-54 33.5l-506 74l-227 459q-21 41 -50 41t-49 -41l-227 -459l-506 -74q-45 -6 -54 -33.5z" />
<glyph unicode="&#xf006;" horiz-adv-x="1675" d="M0 948q0 -22 27 -49l364 -356l-86 -504q0 -6 -1 -9q-1 -4 -1 -12q0 -21 10 -34q9 -14 31 -14t41 12l453 237l452 -237q17 -13 41 -13q41 0 41 49q0 9 -1 12t-1 9l-86 504l367 356q24 24 24 49q0 34 -55 45l-506 74l-227 459q-17 41 -49 41q-15 0 -29 -12.5t-21 -28.5 l-227 -459l-506 -74q-55 -11 -55 -45zM289 866l379 56l170 344l170 -344l378 -56l-274 -268l66 -377l-340 178l-340 -178l65 377z" />
<glyph unicode="&#xf007;" horiz-adv-x="1566" d="M0 57q26 -13 45 -35q18 -22 53 -22h1370q9 0 22 7q26 14 55 36q10 9 22 14v387q0 37 -18 82q-38 92 -114 161q-23 21 -45.5 32t-38 14.5t-55.5 9.5q-64 10 -205 27q-62 8 -77 10q92 59 144 154.5t52 204.5q0 177 -125 302q-126 126 -303 126t-300 -126 q-126 -128 -126 -302q0 -110 52 -204.5t145 -154.5q-15 -2 -77 -10q-82 -10 -104 -13q-135 -17 -169 -28q-66 -18 -136 -117q-67 -92 -67 -168v-387z" />
<glyph unicode="&#xf008;" d="M0 115q0 -47 34 -81t81 -34h1614q47 0 80.5 34t33.5 81v1306q0 47 -33.5 81t-80.5 34h-1614q-47 0 -81 -34t-34 -81v-1306zM115 154v153q0 17 11.5 28t27.5 11h153q17 0 28 -11.5t11 -27.5v-153q0 -17 -11.5 -28t-27.5 -11h-153q-17 0 -28 11.5t-11 27.5zM115 512v154 q0 16 11.5 27.5t27.5 11.5h153q17 0 28 -11.5t11 -27.5v-154q0 -16 -11.5 -27.5t-27.5 -11.5h-153q-17 0 -28 11.5t-11 27.5zM115 870v154q0 16 11.5 27.5t27.5 11.5h153q17 0 28 -11.5t11 -27.5v-154q0 -16 -11.5 -27.5t-27.5 -11.5h-153q-17 0 -28 11.5t-11 27.5z M115 1229v153q0 17 11.5 28t27.5 11h153q17 0 28 -11.5t11 -27.5v-153q0 -17 -11.5 -28t-27.5 -11h-153q-17 0 -28 11.5t-11 27.5zM461 154v512q0 16 11.5 27.5t27.5 11.5h843q17 0 28 -11.5t11 -27.5v-512q0 -17 -11.5 -28t-27.5 -11h-843q-17 0 -28 11.5t-11 27.5z M461 870v512q0 17 11.5 28t27.5 11h843q17 0 28 -11.5t11 -27.5v-512q0 -16 -11.5 -27.5t-27.5 -11.5h-843q-17 0 -28 11.5t-11 27.5zM1497 154v153q0 17 11.5 28t27.5 11h154q16 0 27.5 -11.5t11.5 -27.5v-153q0 -17 -11.5 -28t-27.5 -11h-154q-16 0 -27.5 11.5t-11.5 27.5 zM1497 512v154q0 16 11.5 27.5t27.5 11.5h154q16 0 27.5 -11.5t11.5 -27.5v-154q0 -16 -11.5 -27.5t-27.5 -11.5h-154q-16 0 -27.5 11.5t-11.5 27.5zM1497 870v154q0 16 11.5 27.5t27.5 11.5h154q16 0 27.5 -11.5t11.5 -27.5v-154q0 -16 -11.5 -27.5t-27.5 -11.5h-154 q-16 0 -27.5 11.5t-11.5 27.5zM1497 1229v153q0 17 11.5 28t27.5 11h154q16 0 27.5 -11.5t11.5 -27.5v-153q0 -17 -11.5 -28t-27.5 -11h-154q-16 0 -27.5 11.5t-11.5 27.5z" />
<glyph unicode="&#xf009;" d="M0 78q0 -33 22.5 -55.5t55.5 -22.5h690q33 0 55.5 22.5t22.5 55.5v536q0 33 -22.5 55.5t-55.5 22.5h-690q-33 0 -55.5 -22.5t-22.5 -55.5v-536zM0 922q0 -33 22.5 -54.5t55.5 -21.5h690q33 0 55.5 21.5t22.5 54.5v538q0 31 -22.5 53.5t-55.5 22.5h-690q-33 0 -55.5 -22.5 t-22.5 -53.5v-538zM999 78q0 -33 21.5 -55.5t54.5 -22.5h692q31 0 53.5 22.5t22.5 55.5v536q0 33 -22.5 55.5t-53.5 22.5h-692q-33 0 -54.5 -22.5t-21.5 -55.5v-536zM999 922q0 -33 21.5 -54.5t54.5 -21.5h692q31 0 53.5 22t22.5 54v538q0 31 -22.5 53.5t-53.5 22.5h-692 q-32 0 -54 -22.5t-22 -53.5v-538z" />
<glyph unicode="&#xf00a;" d="M0 78q0 -33 22.5 -55.5t55.5 -22.5h358q31 0 53.5 22.5t22.5 55.5v270q0 32 -22.5 54t-53.5 22h-358q-33 0 -55.5 -21.5t-22.5 -54.5v-270zM0 655q0 -32 22.5 -54.5t55.5 -22.5h358q31 0 53.5 22t22.5 55v226q0 32 -22.5 53.5t-53.5 21.5h-358q-33 0 -55.5 -21t-22.5 -54 v-226zM0 1188q0 -33 22.5 -55.5t55.5 -22.5h358q31 0 53.5 22.5t22.5 55.5v272q0 31 -22.5 53.5t-53.5 22.5h-358q-33 0 -55.5 -22.5t-22.5 -53.5v-272zM666 78q0 -33 22 -55.5t55 -22.5h359q31 0 53.5 22.5t22.5 55.5v270q0 32 -22.5 54t-53.5 22h-359q-33 0 -55 -21.5 t-22 -54.5v-270zM666 655q0 -32 22 -54.5t55 -22.5h359q31 0 53.5 22t22.5 55v226q0 32 -22.5 53.5t-53.5 21.5h-359q-33 0 -55 -21t-22 -54v-226zM666 1188q0 -33 22 -55.5t55 -22.5h359q31 0 53.5 22.5t22.5 55.5v272q0 31 -22.5 53.5t-53.5 22.5h-359q-32 0 -54.5 -22.5 t-22.5 -53.5v-272zM1331 78q0 -33 22.5 -55.5t55.5 -22.5h358q31 0 53.5 22.5t22.5 55.5v270q0 32 -22.5 54t-53.5 22h-358q-33 0 -55.5 -21.5t-22.5 -54.5v-270zM1331 655q0 -32 22.5 -54.5t55.5 -22.5h358q31 0 53.5 22t22.5 55v226q0 32 -22.5 53.5t-53.5 21.5h-358 q-33 0 -55.5 -21t-22.5 -54v-226zM1331 1188q0 -33 22.5 -55.5t55.5 -22.5h358q31 0 53.5 22.5t22.5 55.5v272q0 31 -22.5 53.5t-53.5 22.5h-358q-33 0 -55.5 -22.5t-22.5 -53.5v-272z" />
<glyph unicode="&#xf00b;" d="M0 78q0 -33 22.5 -55.5t55.5 -22.5h297q31 0 53.5 22.5t22.5 55.5v270q0 32 -22.5 54t-53.5 22h-297q-33 0 -55.5 -21.5t-22.5 -54.5v-270zM0 655q0 -32 22.5 -54.5t55.5 -22.5h297q31 0 53.5 22t22.5 55v226q0 32 -22.5 53.5t-53.5 21.5h-297q-33 0 -55.5 -21t-22.5 -54 v-226zM0 1188q0 -33 22.5 -55.5t55.5 -22.5h297q31 0 53.5 22.5t22.5 55.5v272q0 31 -22.5 53.5t-53.5 22.5h-297q-33 0 -55.5 -22.5t-22.5 -53.5v-272zM604 78q0 -33 22.5 -55.5t55.5 -22.5h1085q31 0 53.5 22.5t22.5 55.5v270q0 32 -22.5 54t-53.5 22h-1085 q-33 0 -55.5 -21.5t-22.5 -54.5v-270zM604 655q0 -32 22.5 -54.5t55.5 -22.5h1085q31 0 53.5 22t22.5 55v226q0 32 -22.5 53.5t-53.5 21.5h-1085q-33 0 -55.5 -21t-22.5 -54v-226zM604 1188q0 -33 22.5 -55.5t55.5 -22.5h1085q31 0 53.5 22.5t22.5 55.5v272q0 31 -22.5 53.5 t-53.5 22.5h-1085q-33 0 -55.5 -22.5t-22.5 -53.5v-272z" />
<glyph unicode="&#xf00c;" d="M0 733q0 -34 23 -57l526 -529q22 -22 62 -38.5t75 -16.5h88q33 0 72.5 16t62.5 39l910 910q22 22 22.5 55t-22.5 57l-174 174q-23 23 -56 23q-34 0 -57 -23l-746 -745q-23 -23 -55 -23q-34 0 -57 23l-365 365q-22 22 -55 22.5t-57 -22.5l-174 -175q-23 -23 -23 -55z" />
<glyph unicode="&#xf00d;" horiz-adv-x="1536" d="M0 193q0 -39 29 -68l100 -100q29 -29 67 -29q37 0 66 29l506 505l504 -505q29 -29 67 -29q39 0 68 29l100 102q29 29 29 67q0 37 -29 66l-508 500l508 510q29 29 29 67q0 39 -29 68l-100 100q-29 29 -67 29q-39 0 -68 -29l-504 -504l-504 504q-29 29 -67 29 q-39 0 -68 -29l-100 -100q-29 -29 -29 -67q0 -39 29 -68l508 -500l-508 -510q-29 -29 -29 -67z" />
<glyph unicode="&#xf00e;" horiz-adv-x="1597" d="M0 901q0 -137 51.5 -258t144.5 -213t214 -143t256 -51q205 0 366 110l359 -358q18 -19 46 -18.5t48 18.5l94 94q18 20 18 48t-18 46l-358 359q110 160 110 366q0 135 -51 256t-143 214q-92 92 -214 144t-257 52t-255.5 -51.5t-214.5 -144.5q-93 -92 -144.5 -213.5 t-51.5 -256.5zM266 901q0 162 118 282q117 117 282 117q81 0 154.5 -31t127.5 -86q117 -120 117 -282q0 -165 -117 -282q-54 -55 -127.5 -86t-154.5 -31q-165 0 -282 117q-118 116 -118 282zM399 868q0 -14 9.5 -24t23.5 -10h168v-166q0 -33 33 -33h65q15 0 25 9.5t10 23.5 v166h166q14 0 23.5 10t9.5 24v66q0 33 -33 33h-166v168q0 14 -10 23t-25 9h-65q-33 1 -33 -32v-168h-168q-33 0 -33 -33v-66z" />
<glyph unicode="&#xf010;" horiz-adv-x="1597" d="M0 901q0 -137 51.5 -258t144.5 -213t214 -143t256 -51q205 0 366 110l359 -358q18 -19 46 -18.5t48 18.5l94 94q18 20 18 48t-18 46l-358 359q110 160 110 366q0 135 -51 256t-143 214q-92 92 -214 144t-257 52t-255.5 -51.5t-214.5 -144.5q-93 -92 -144.5 -213.5 t-51.5 -256.5zM266 901q0 162 118 282q117 117 282 117q81 0 154.5 -31t127.5 -86q117 -120 117 -282q0 -165 -117 -282q-54 -55 -127.5 -86t-154.5 -31q-165 0 -282 117q-118 116 -118 282zM399 868q0 -14 9.5 -24t23.5 -10h467q14 0 23.5 10t9.5 24v66q0 33 -33 33h-467 q-33 0 -33 -33v-66z" />
<glyph unicode="&#xf011;" horiz-adv-x="1488" d="M0 713q0 -151 57.5 -286.5t160.5 -238.5q103 -104 238.5 -161.5t286.5 -57.5t287.5 57.5t240.5 161.5q103 103 160.5 238.5t57.5 286.5q0 186 -86 349t-240 267q-32 18 -55 -10l-88 -131q-10 -13 -7 -28t17 -25q105 -72 164 -183t59 -239q0 -104 -39 -197t-110 -162 q-71 -70 -164.5 -109.5t-196.5 -39.5t-196 39.5t-163 109.5q-70 69 -109 162.5t-39 196.5q0 129 58.5 239.5t164.5 182.5q13 10 16 25.5t-6 27.5l-90 131q-7 12 -24 15.5t-29 -5.5q-154 -104 -240 -267t-86 -349zM627 793q0 -17 11.5 -28t27.5 -11h157q17 0 28 11.5t11 27.5 v704q0 16 -11.5 27.5t-27.5 11.5h-157q-17 0 -28 -11.5t-11 -27.5v-704z" />
<glyph unicode="&#xf012;" d="M0 39q0 -39 39 -39h192q17 0 27 11.5t10 27.5v260q0 16 -10.5 27.5t-26.5 11.5h-192q-16 0 -27.5 -11.5t-11.5 -27.5v-260zM393 39q0 -16 11.5 -27.5t27.5 -11.5h193q16 0 26.5 11.5t10.5 27.5v434q0 16 -10.5 27.5t-26.5 11.5h-193q-16 0 -27.5 -11.5t-11.5 -27.5v-434z M786 39q0 -16 11.5 -27.5t27.5 -11.5h193q16 0 27.5 11.5t11.5 27.5v676q0 16 -11.5 27.5t-27.5 11.5h-193q-16 0 -27.5 -11.5t-11.5 -27.5v-676zM1182 39q0 -16 10.5 -27.5t26.5 -11.5h192q16 0 27.5 11.5t11.5 27.5v995q0 17 -11.5 28t-27.5 11h-192q-17 0 -27 -11.5 t-10 -27.5v-995zM1575 39q0 -39 39 -39h190q39 0 39 39v1458q0 39 -39 39h-190q-39 0 -39 -39v-1458z" />
<glyph unicode="&#xf013;" horiz-adv-x="1593" d="M0 651q0 -14 16 -18q48 -17 101 -20q57 -3 104 -13q18 -68 51 -123l-26 -34q-54 -70 -80 -109q-16 -25 -16 -27q0 -9 28 -38q70 -80 125 -128q31 -28 37 -28l12 4q43 36 79 63q41 28 81 60q57 -33 117 -50q8 -64 11 -103q4 -48 19 -103q5 -17 19 -17h237q14 0 21 31 q15 56 24 146q2 25 5 49q63 17 118 47q5 -3 34 -24q55 -44 110 -84q23 -19 26 -19q10 0 41 28q60 51 129 128q27 30 27 38l-6 15q-65 74 -121 157q34 62 47 117q24 3 49 5q91 7 145 25q29 9 29 21v236q0 14 -16 18q-48 17 -101 20q-57 3 -104 13q-18 68 -51 123q18 24 25 33 q30 39 81 109q17 25 17 28q0 7 -27 39q-75 81 -127 128q-32 27 -37 27q-6 0 -29 -17q-51 -38 -109 -83q-8 -6 -15 -12t-12.5 -10t-6.5 -5q-45 28 -116 47q-10 59 -14 106q-4 50 -17 103q-4 15 -19 15h-237q-12 0 -21 -31q-10 -29 -16 -69q-12 -77 -12 -124q-77 -24 -119 -47 q-18 14 -32 25q-10 8 -30.5 23.5t-26.5 19.5q-46 35 -54 41q-25 18 -27 18q-8 0 -40 -27q-52 -45 -129 -128q-28 -31 -28 -39l7 -15q66 -77 120 -157q-30 -54 -49 -117q-24 -3 -48 -5q-86 -7 -142 -24q-31 -10 -31 -22v-236zM557 768q0 98 70 168q68 70 170 70t169 -70 q70 -73 70 -168q0 -97 -70 -170q-69 -72 -169 -72t-170 72q-70 70 -70 170z" />
<glyph unicode="&#xf014;" horiz-adv-x="1304" d="M0 1176q0 -13 2 -35q64 -36 307 -51q132 -9 344 -9q211 0 344 9q242 15 308 51v141q-25 14 -72 24q-91 17 -202 24q-15 1 -42 2.5t-37 2.5q2 18 2 25v24q0 120 -94 160q-57 23 -207 23q-168 0 -230 -35q-86 -49 -71 -197q-10 -1 -36.5 -2.5t-41.5 -2.5q-50 -3 -103 -9 q-127 -15 -169 -39q-2 -24 -2 -36v-36v-34zM133 154q0 -64 45.5 -109t108.5 -45h731q63 0 107 45.5t44 108.5v837q-162 -20 -516 -26h-32q-285 0 -488 26v-837zM303 199v614q0 16 10.5 27.5t26.5 11.5h39q16 0 27.5 -11.5t11.5 -27.5v-614q0 -17 -11.5 -27t-27.5 -10h-39 q-16 0 -26.5 10.5t-10.5 26.5zM504 1384v15q43 12 149 12q105 0 148 -12v-15q1 -10 0 -21q-2 -16 -2 -24q-147 1 -291 0q-4 20 -4 45zM596 199v614q0 16 10.5 27.5t26.5 11.5h39q16 0 27.5 -11.5t11.5 -27.5v-614q0 -17 -11.5 -27t-27.5 -10h-39q-17 0 -27 10.5t-10 26.5z M887 199v614q0 16 11.5 27.5t27.5 11.5h39q16 0 27.5 -11.5t11.5 -27.5v-614q0 -17 -11.5 -27t-27.5 -10h-39q-17 0 -28 10.5t-11 26.5z" />
<glyph unicode="&#xf015;" horiz-adv-x="1880" d="M0 809.5q-2 -15.5 8 -27.5l45 -53q11 -14 29 -14h65q17 0 25 8l743 608q25 19 50 0l743 -608q10 -8 25 -8h65q18 0 29 14l45 53q10 13 8 28.5t-14 25.5l-328 268v348q0 16 -10.5 27.5t-26.5 11.5h-223q-16 0 -27.5 -11.5t-11.5 -27.5v-102l-240 196q-26 21 -58.5 20.5 t-59.5 -20.5l-867 -710q-12 -11 -14 -26.5zM266 76q0 -33 21.5 -54.5t54.5 -21.5h422v498h352v-498h422q33 0 54.5 21.5t21.5 54.5v622l-674 553l-674 -553v-622z" />
<glyph unicode="&#xf016;" horiz-adv-x="1228" d="M0 78q0 -33 22.5 -55.5t55.5 -22.5h1075q31 0 53.5 22.5t22.5 55.5v921q0 33 -16 70.5t-39 60.5l-351 351q-22 22 -60.5 38.5t-70.5 16.5h-614q-33 0 -55.5 -22.5t-22.5 -53.5v-1382zM154 154v1228h387v-458q0 -33 22 -55.5t53 -22.5h459v-692h-921zM268 326h693v116 h-693v-116zM268 596h693v115h-693v-115zM694 999v383l12 -4q8 -2 9 -6l350 -348q2 -2 6 -11.5t4 -13.5h-381z" />
<glyph unicode="&#xf017;" horiz-adv-x="1597" d="M0 768q0 -163 61.5 -309t172.5 -256q110 -111 256 -172.5t309 -61.5t308.5 61.5t256.5 172.5q110 110 171.5 256t61.5 309t-61 309t-172 257q-111 110 -256.5 171.5t-308.5 61.5t-309 -61.5t-256 -171.5q-111 -111 -172.5 -257t-61.5 -309zM240 768q0 115 43 216t121 179 q77 77 178.5 120.5t216.5 43.5q114 0 216 -43.5t179 -120.5q78 -78 121 -179t43 -216t-43 -216t-121 -179t-179 -121t-216 -43t-216.5 43.5t-178.5 120.5q-78 78 -121 179t-43 216zM635 608q0 -33 23.5 -56.5t56.5 -23.5h360q33 0 56.5 23.5t23.5 56.5v80q0 33 -23.5 56.5 t-56.5 23.5h-201v305q0 34 -22 57t-57 23h-80q-33 0 -56.5 -23.5t-23.5 -56.5v-465z" />
<glyph unicode="&#xf018;" d="M2 35q-6 -15 1.5 -25t23.5 -10h739l27 512h258l26 -512h740q16 0 23 10.5t1 24.5l-594 1466q-6 15 -21.5 25t-31.5 10h-195l9 -170h-172l8 170h-195q-16 0 -31.5 -10.5t-21.5 -24.5zM807 797l20 413h189l20 -413h-229z" />
<glyph unicode="&#xf019;" d="M0 39q0 -39 39 -39h1765q39 0 39 39v614q0 17 -11.5 28t-27.5 11h-229q-16 0 -27.5 -11.5t-11.5 -27.5v-346h-1229v346q0 17 -11.5 28t-27.5 11h-229q-16 0 -27.5 -11.5t-11.5 -27.5v-614zM345.5 944.5q-6.5 -16.5 16.5 -39.5l504 -506q24 -22 55.5 -22.5t55.5 22.5 l504 506q22 23 16 39.5t-37 16.5h-307v499q0 31 -22.5 53.5t-55.5 22.5h-307q-32 0 -54 -22.5t-22 -53.5v-499h-307q-33 0 -39.5 -16.5z" />
<glyph unicode="&#xf01a;" horiz-adv-x="1597" d="M0 768q0 -163 61.5 -309t172.5 -256q110 -111 256 -172.5t309 -61.5t308.5 61.5t256.5 172.5q110 110 171.5 256t61.5 309t-61 309t-172 257q-111 110 -256.5 171.5t-308.5 61.5t-309 -61.5t-256 -171.5q-111 -111 -172.5 -257t-61.5 -309zM240 768q0 115 43 216t121 179 q77 77 178.5 120.5t216.5 43.5q114 0 216 -43.5t179 -120.5q78 -78 121 -179t43 -216t-43 -216t-121 -179t-179 -121t-216 -43t-216.5 43.5t-178.5 120.5q-78 78 -121 179t-43 216zM414 743q-10 -24 10 -43l346 -346q14 -10 29 -10t28 10l347 346q20 18 10 43t-37 25h-209 v358q0 17 -11.5 29t-27.5 12h-201q-16 0 -27.5 -12.5t-11.5 -28.5v-358h-208q-27 0 -37 -25z" />
<glyph unicode="&#xf01b;" horiz-adv-x="1597" d="M0 768q0 -163 61.5 -309t172.5 -256q110 -111 256 -172.5t309 -61.5t308.5 61.5t256.5 172.5q110 110 171.5 256t61.5 309t-61 309t-172 257q-111 110 -256.5 171.5t-308.5 61.5t-309 -61.5t-256 -171.5q-111 -111 -172.5 -257t-61.5 -309zM240 768q0 115 43 216t121 179 q77 77 178.5 120.5t216.5 43.5t216 -43t179 -121t121 -179t43 -216t-43 -216t-121 -179t-179 -121t-216 -43t-216.5 43.5t-178.5 120.5q-78 78 -121 179t-43 216zM414 793q10 -25 37 -25h208v-360q0 -17 11.5 -28t27.5 -11h201q16 0 27.5 11.5t11.5 27.5v360h209q27 0 37 25 t-10 43l-347 346q-13 10 -28 10q-16 0 -29 -10l-346 -346q-20 -19 -10 -43z" />
<glyph unicode="&#xf01c;" d="M0 78q0 -33 22.5 -55.5t55.5 -22.5h1689q31 0 53.5 22.5t22.5 55.5v577q0 72 -31 148l-284 663q-12 29 -44 49.5t-63 20.5h-999q-31 0 -63 -20.5t-44 -49.5l-284 -663q-31 -71 -31 -148v-577zM238 694q2 6 2 10q0 5 2 7l256 596h848l256 -594q2 -6 2 -9q0 -4 2 -10h-367 l-117 -231h-383l-114 231h-387z" />
<glyph unicode="&#xf01d;" horiz-adv-x="1597" d="M0 768q0 -163 61.5 -309t172.5 -256q110 -111 256 -172.5t309 -61.5t308.5 61.5t256.5 172.5q110 110 171.5 256t61.5 309t-61 309t-172 257q-111 110 -256.5 171.5t-308.5 61.5t-309 -61.5t-256 -171.5q-111 -111 -172.5 -257t-61.5 -309zM240 768q0 115 43 216t121 179 q77 77 178.5 120.5t216.5 43.5q114 0 216 -43.5t179 -120.5q78 -78 121 -179t43 -216t-43 -216t-121 -179t-179 -121t-216 -43t-216.5 43.5t-178.5 120.5q-78 78 -121 179t-43 216zM582 453q0 -17 16 -27q7 -4 16 -4q8 0 15 4l545 315q16 7 16 27q0 21 -16 27l-545 315 q-11 8 -31 0q-16 -10 -16 -29v-628z" />
<glyph unicode="&#xf01e;" horiz-adv-x="1591" d="M0 768q0 -163 61.5 -309t172.5 -256q110 -111 256 -172.5t309 -61.5q147 0 283 52t244 146q107 94 176 221.5t89 273.5q2 15 -8.5 28t-26.5 17l-157 20q-17 2 -31 -8.5t-14 -26.5q-31 -208 -187 -344q-162 -139 -368 -139q-115 0 -216.5 43.5t-178.5 120.5 q-78 78 -121 179t-43 216t43 216t121 179q77 77 178.5 120.5t216.5 43.5q190 0 340 -119l-160 -159q-35 -35 -24 -58.5t59 -23.5h463q31 0 53 22t22 55v463q0 48 -23.5 58t-58.5 -25l-161 -162q-223 189 -510 189q-163 0 -309 -61.5t-256 -171.5q-111 -111 -172.5 -257 t-61.5 -309z" />
<glyph unicode="&#xf021;" horiz-adv-x="1916" d="M6 311q-16 -47 4.5 -64.5t63.5 5.5l205 100q149 -247 421 -342q160 -52 315 -39.5t296 81.5t246 186t157 272q6 16 -1 30.5t-23 20.5l-152 51q-38 9 -51 -24q-36 -109 -109 -191.5t-171 -130.5q-207 -101 -429 -28q-172 57 -284 221l202 100q43 23 42 47.5t-46 40.5 l-438 150q-32 9 -60.5 -4t-37.5 -45zM203 1024q-6 -16 1 -30.5t23 -20.5l152 -51q38 -9 51 24q36 109 109 191.5t172 130.5q206 101 428 28q177 -61 282 -221l-202 -100q-27 -15 -36 -31.5t1.5 -31.5t40.5 -25l438 -150q32 -9 60.5 4t37.5 45l150 439q16 45 -4.5 62.5 t-63.5 -5.5l-205 -100q-72 120 -180 207.5t-241 134.5q-162 52 -316 40t-295 -81q-140 -69 -245.5 -187.5t-157.5 -271.5z" />
<glyph unicode="&#xf022;" d="M0 115q0 -47 34 -81t81 -34h1614q47 0 80.5 34t33.5 81v1306q0 47 -33.5 81t-80.5 34h-1614q-47 0 -81 -34t-34 -81v-1306zM154 154v1075h1536v-1075h-1536zM307 346q0 -39 39 -39h154q16 0 27.5 11.5t11.5 27.5v76q0 16 -11.5 27.5t-27.5 11.5h-154q-39 0 -39 -39v-76z M307 653q0 -39 39 -39h154q16 0 27.5 11.5t11.5 27.5v76q0 16 -11.5 27.5t-27.5 11.5h-154q-39 0 -39 -39v-76zM307 961q0 -39 39 -39h154q16 0 27.5 11.5t11.5 27.5v75q0 17 -11.5 28t-27.5 11h-154q-39 0 -39 -39v-75zM692 346q0 -16 10.5 -27.5t26.5 -11.5h768 q39 0 39 39v76q0 39 -39 39h-768q-16 0 -26.5 -11.5t-10.5 -27.5v-76zM692 653q0 -16 10.5 -27.5t26.5 -11.5h768q39 0 39 39v76q0 39 -39 39h-768q-16 0 -26.5 -11.5t-10.5 -27.5v-76zM692 961q0 -17 10.5 -28t26.5 -11h768q39 0 39 39v75q0 39 -39 39h-768 q-16 0 -26.5 -11.5t-10.5 -27.5v-75z" />
<glyph unicode="&#xf023;" horiz-adv-x="1253" d="M0 117q0 -47 35 -82t82 -35h1020q47 0 81.5 35t34.5 82v626q0 39 -21 69t-56 42v164q0 110 -42.5 211t-118.5 177t-176.5 118.5t-211.5 42.5q-112 0 -212.5 -42.5t-175.5 -118.5q-76 -76 -118.5 -176.5t-42.5 -211.5v-164q-35 -12 -56.5 -42t-21.5 -69v-626zM313 862v156 q0 132 93 222q94 91 221 91q128 0 221 -91q92 -90 92 -222v-156h-627zM494 164l65 287q-29 16 -47 46.5t-18 65.5q0 55 39 95t94 40t94 -40t39 -95q0 -35 -18 -65.5t-48 -48.5l66 -285h-266z" />
<glyph unicode="&#xf024;" d="M0 1382q0 -80 78 -131v-1212q0 -16 10.5 -27.5t26.5 -11.5h78q16 0 27 11.5t11 27.5v1212q76 50 76 131q0 63 -45 108.5t-108 45.5q-64 0 -109 -45.5t-45 -108.5zM307 416q0 -33 19.5 -45t48.5 4q101 55 189 88q160 59 267 63q119 0 232 -40q64 -24 199 -95 q63 -29 145 -33q184 -10 371 103q27 16 46 49.5t19 64.5v748q0 33 -18 43t-47 -6q-112 -68 -207 -87q-188 -39 -309 17q-142 74 -199 95q-113 40 -232 40q-53 -1 -124 -18q-151 -36 -332 -131q-29 -16 -48.5 -49t-19.5 -66v-745z" />
<glyph unicode="&#xf025;" horiz-adv-x="1916" d="M0 729q0 -184 78 -352l26 -60l175 -26q23 -103 109 -173q85 -69 198 -69v-41q0 -16 12.5 -27.5t28.5 -11.5h80q16 0 27 11.5t11 27.5v719q0 16 -11.5 28.5t-26.5 12.5h-80q-17 0 -29 -12.5t-12 -28.5v-39q-86 0 -159.5 -43.5t-115.5 -116.5l-39 7q-32 91 -32 194 q0 119 63.5 229t172.5 194q105 82 232.5 128.5t249.5 46.5t251 -47q129 -48 233 -130t170 -189q41 -69 56 -148t7.5 -146.5t-30.5 -131.5l-39 -7q-42 73 -115 116.5t-160 43.5v39q0 16 -12.5 28.5t-28.5 12.5h-80q-16 0 -27.5 -12.5t-11.5 -28.5v-719q0 -16 11.5 -27.5 t27.5 -11.5h80q17 0 29 11.5t12 27.5v41q111 0 195.5 68t111.5 174l174 26l27 60q78 168 78 350q0 168 -82 321t-224 272q-137 115 -309 181t-344 66t-343 -65.5t-309 -181.5q-141 -119 -223.5 -272t-82.5 -319z" />
<glyph unicode="&#xf026;" horiz-adv-x="905" d="M0 578q0 -17 11.5 -28t27.5 -11h420l325 -326q50 -51 84.5 -37t34.5 86v1012q0 72 -35 86t-84 -37l-325 -326h-420q-16 0 -27.5 -11.5t-11.5 -27.5v-380z" />
<glyph unicode="&#xf027;" horiz-adv-x="1277" d="M0 578q0 -17 11.5 -28t27.5 -11h420l325 -326q50 -51 84.5 -37t34.5 86v1012q0 72 -35 86t-84 -37l-325 -326h-420q-16 0 -27.5 -11.5t-11.5 -27.5v-380zM1027 406q9 -32 38 -48q19 -12 39 -12q47 0 70 41q104 181 104 381q0 199 -104 381q-17 29 -48.5 37t-60.5 -8 t-38 -48t7 -61q84 -145 84 -301t-84 -301q-16 -29 -7 -61z" />
<glyph unicode="&#xf028;" horiz-adv-x="1916" d="M0 578q0 -17 11.5 -28t27.5 -11h420l325 -326q50 -51 84.5 -37t34.5 86v1012q0 72 -35 86t-84 -37l-325 -326h-420q-16 0 -27.5 -11.5t-11.5 -27.5v-380zM1027 406q9 -32 38 -48q19 -12 39 -12q47 0 70 41q104 181 104 381q0 199 -104 381q-17 29 -48.5 37t-60.5 -8 t-38 -48t7 -61q84 -145 84 -301t-84 -301q-16 -29 -7 -61zM1285 219q7 -33 36 -49q18 -12 43 -12q19 0 38 10t28 27q167 265 167 573t-165 573q-18 29 -50 36t-61 -11q-29 -16 -36 -49t11 -62q142 -225 141.5 -487t-141.5 -487q-18 -29 -11 -62zM1539.5 33q6.5 -33 35.5 -51 q19 -13 45 -13q19 0 38 10t28 27q231 348 231 762t-231 764q-18 27 -50 32.5t-61 -10.5q-29 -18 -35 -50.5t12 -61.5q205 -308 205 -674q0 -360 -205 -676q-19 -26 -12.5 -59z" />
<glyph unicode="&#xf029;" horiz-adv-x="1536" d="M0 0h698v698h-698v-698zM0 838h698v698h-698v-698zM139 139v420h420v-420h-420zM139 977v420h420v-420h-420zM279 279h141v141h-141v-141zM279 1116h141v139h-141v-139zM838 0h139v418h139v-139h420v419h-139v-139h-142v139h-417v-698zM838 838h698v698h-698v-698z M977 977v420h420v-420h-420zM1116 0h139v139h-139v-139zM1116 1116h139v139h-139v-139zM1397 0h139v139h-139v-139z" />
<glyph unicode="&#xf02a;" d="M0 0h154v1536h-154v-1536zM227 0h37v1536h-37v-1536zM356 0h117v1536h-117v-1536zM545 0h78v1536h-78v-1536zM715 0h76v1536h-76v-1536zM903 0h37v1536h-37v-1536zM1014 0h153v1536h-153v-1536zM1221 0h77v1536h-77v-1536zM1409 0h39v1536h-39v-1536zM1579 0h37v1536h-37 v-1536zM1690 0h153v1536h-153v-1536z" />
<glyph unicode="&#xf02b;" horiz-adv-x="1488" d="M0 961q0 -51 25 -110.5t61 -96.5l670 -750q36 -36 86 -36t86 36l526 526q35 36 34.5 84t-34.5 88l-672 748q-32 36 -93.5 61t-113.5 25h-454q-50 0 -85.5 -36t-35.5 -85v-454zM197 1223q0 49 33.5 82.5t82.5 33.5t83 -33.5t34 -82.5t-34 -83t-83 -34t-82.5 34t-33.5 83z " />
<glyph unicode="&#xf02c;" horiz-adv-x="1875" d="M0 961q0 -49 25 -108t61 -99l670 -746q33 -38 83.5 -37t86.5 37l526 524q35 36 34.5 84.5t-34.5 85.5l-670 748q-29 33 -96 62q-58 24 -111 24h-454q-50 0 -85.5 -36t-35.5 -85v-454zM195 1223q0 49 34.5 83.5t83.5 34.5q47 0 82 -34.5t35 -83.5q0 -47 -35 -82t-82 -35 q-49 0 -83.5 35t-34.5 82zM791 1534q53 -7 105 -29t81 -55l670 -748q34 -36 34.5 -85t-34.5 -85l-514 -514l12 -14q36 -36 86 -36t86 36l524 524q35 35 35 85q0 49 -35 87l-670 748q-32 36 -93 61t-113 25h-174z" />
<glyph unicode="&#xf02d;" horiz-adv-x="1710" d="M10 311q-23 -60 2 -127q31 -81 103 -130q77 -54 153 -54h946q69 0 128 43.5t77 108.5l283 905q22 76 -19 129q-20 29 -61 43q4 -25 -4 -58l-309 -987q-9 -27 -37.5 -48t-57.5 -21h-946q-44 0 -87 33q-42 30 -57.5 69.5t-2.5 61.5q12 14 39 14h893q67 0 126.5 44t77.5 107 l283 906q22 76 -18 129q-41 57 -119 57h-780q-24 0 -54 -10l2 4q-49 13 -77 -1q-48 -26 -76 -104q-20 -53 -55 -90q-30 -31 -17 -57q6 -13 4 -25q-1 -15 -10 -45q-16 -51 -42 -102q-22 -41 -46 -59q-29 -20 -21 -56q6 -26 -6 -73q-11 -44 -37 -100q-24 -48 -42 -65 q-27 -25 -16 -54q5 -17 1 -31q-25 -99 -78 -183q-14 -23 -25 -35q-23 -27 -14 -52q6 -16 0 -55q0 -6 -2 -16.5t-2 -15.5zM500 961l22 75q4 17 19.5 28t31.5 11h615q15 0 22.5 -11.5t3.5 -27.5l-24 -75q-4 -17 -18.5 -28t-30.5 -11h-615q-36 0 -26 39zM569 1190l23 78 q6 16 21 27.5t30 11.5h614q17 0 24 -11.5t3 -27.5l-22 -78q-7 -16 -21.5 -26.5t-30.5 -10.5h-614q-16 0 -23.5 10.5t-3.5 26.5z" />
<glyph unicode="&#xf02e;" horiz-adv-x="1253" d="M0 84q0 -47 34 -81t81 -34t80 33l432 432l432 -432q33 -33 80 -33t80.5 34t33.5 81v1337q0 47 -33.5 81t-80.5 34h-1024q-47 0 -81 -34t-34 -81v-1337z" />
<glyph unicode="&#xf02f;" d="M0 39q0 -39 39 -39h1765q39 0 39 39v346q0 93 -67 162q-67 67 -162 67h-1383q-93 0 -162 -67t-69 -162v-346zM268 193v38q0 17 11.5 28t27.5 11h1229q16 0 27.5 -11.5t11.5 -27.5v-38q0 -17 -11.5 -27t-27.5 -10h-1229q-16 0 -27.5 10.5t-11.5 26.5zM307 729h1229v307 h-385q-47 0 -81 34t-34 83v383h-651q-33 0 -55.5 -22.5t-22.5 -53.5v-731zM1151 1153h385l-385 383v-383z" />
<glyph unicode="&#xf030;" d="M0 115q0 -47 34 -81t81 -34h1614q47 0 80.5 34t33.5 81v1075q0 48 -33.5 82.5t-80.5 34.5h-367l-57 125q-19 43 -67 73.5t-95 30.5h-443q-47 0 -95 -30.5t-66 -73.5l-58 -125h-366q-47 0 -81 -35t-34 -82v-1075zM442 653q0 97 37.5 185.5t103.5 154.5t154 103t185 37 t185 -37t154 -103t103 -154.5t37 -185.5q0 -197 -140 -339q-65 -67 -153.5 -104.5t-185.5 -37.5t-185.5 37.5t-153.5 104.5q-141 143 -141 339zM596 653q0 -134 95 -231q94 -96 231 -96q136 0 230 96q95 97 95 231q0 136 -95 231t-230 95q-136 0 -231 -95t-95 -231z" />
<glyph unicode="&#xf031;" horiz-adv-x="1644" d="M0 0h20q91 0 164 14l49 9q180 -14 224 -16q95 -5 121 -5q2 14 2 27v59q-70 8 -84 12q-76 12 -103 31q-16 16 -16 43q-1 19 22 84q35 96 66 178q29 78 37 94h446l90 -227l47 -115q18 -41 -6 -57q-12 -12 -67 -25l-129 -26q-4 -33 -4 -78l57 2l199 10q26 2 53 2h80 q72 0 186 -8q109 -8 188 -8q3 10 3 17v10q-2 23 -7 55q-68 24 -102 27q-47 6 -61.5 18.5t-40.5 62.5q-44 91 -64 150q-29 76 -65 164q-14 33 -95 233q-27 70 -123 297l-202 482l-11 20h-126l-277 -725l-233 -614q-34 -58 -50 -68q-16 -15 -108 -33q-55 -7 -78 -16zM549 655 l168 449q38 -86 90 -209q42 -99 92 -242l-29 -2q-24 -1 -105 0q-16 0 -56 1l-80 2t-80 1z" />
<glyph unicode="&#xf032;" horiz-adv-x="1419" d="M0 0q111 4 181 6q40 1 93 4q228 16 301 13l199 -5q246 -1 404 70q76 38 141 109q49 49 72 116q28 88 28 162q0 136 -93.5 238.5t-266.5 142.5q74 36 97 48q38 18 54 30q127 94 127 233q0 61 -20 121q-43 118 -170 180q-50 29 -96 39q-101 27 -193 27h-76q-29 0 -39 1 q-11 1 -22 1h-13q-6 0 -16 -2h-45l-383 -12l-262 -6l4 -84q88 -13 115 -13q48 -1 69 -16q8 -1 13 -10q8 -21 12 -109q2 -85 5 -266q2 -110 5 -139v-498q0 -138 -10 -193q-5 -24 -20 -51q-49 -19 -125 -31q-42 -6 -68 -12zM537 1419q78 15 131 15q175 0 258 -76 q86 -74 86 -187q0 -155 -88 -222.5t-269 -67.5q-57 0 -110 8v176q3 120 -4 278q-4 44 -4 76zM545 457v317q42 10 102 10q169 1 250 -32q83 -31 133.5 -113t50.5 -193q0 -102 -39 -182q-40 -73 -122 -112q-87 -40 -188 -41.5t-173 32.5q-10 26 -10 43z" />
<glyph unicode="&#xf033;" horiz-adv-x="1054" d="M0 0q3 0 37 2q24 2 63 6q127 13 181 10h202q67 -8 105 -12q33 -4 45 -4q9 -4 18 -4h11h15q4 0 28 2q6 0 10 1t14 1q4 12 6 23l4 16q1 12 3 27q1 12 3 32q-6 1 -22.5 3.5t-22.5 3.5q-5 0 -10 0.5t-8 1t-4 0.5q-64 8 -123 22q-2 14 -2 17v10l14 45l43 235l39 158l64 311 q14 78 67 305q6 44 15 82q12 54 24 88q35 14 105 31q63 15 110 31q8 32 15 51q1 3 2 9.5t1 10.5q2 12 3 19q-2 0 -38 -2q-29 -2 -69 -6q-166 -8 -221 -8h-26q-8 0 -50 2l-325 14l-21 -104q11 0 18 -1q12 -2 23 -2q101 -4 148 -28v-39l-9 -49l-22 -135l-17 -64l-30 -156 q0 -4 -18 -63q-19 -57 -42 -178l-12 -64l-57 -268l-29 -137q-12 -63 -41 -103q-42 -20 -121 -39q-52 -12 -78 -20z" />
<glyph unicode="&#xf034;" d="M0 1151q17 -23 55 -43q12 0 35 35q58 89 86.5 121t58.5 42.5t95 10.5h127q48 0 63 -4q8 0 13.5 -6.5t5.5 -14.5q4 -17 4 -72q0 -71 6 -143v-428q4 -252 -6 -432q-6 -45 -11 -57q-39 -21 -135 -49q-63 -20 -80 -50v-10l2 -24q0 -2 2 -10q1 -5 1 -17q13 0 24 1q16 1 45 3 q95 8 109 10q36 4 57 4q169 0 244 -8t164 -8h34q2 14 2 18v11v18q0 16 -4 33q-19 6 -49 18q-12 3 -29 7.5t-21 5.5q-15 4 -21 4q-34 6 -56 16q-10 43 -10 117l-2 147v693l-2 151q0 29 6 72q16 4 35 4h31h138q51 0 60 -4q15 -7 27 -21q10 -14 37 -92q25 -76 53 -129 q5 2 16 4.5t15 3.5q16 3 37 11q4 17 4 51v157q-2 103 -1 139q1 43 -1 97q-14 2 -16 2h-11l-43 -2q-5 -11 -6 -16q-1 -3 -2.5 -7t-1.5 -6q-17 -46 -27 -53l-55 -8h-502l-113 -2l-20 -2q-39 0 -60 -1t-67 -1q-114 0 -129 4q-13 14 -41 71q-4 10 -10 19h-58q-5 -11 -9 -31 q-2 -8 -6.5 -27t-6.5 -28q-47 -209 -80 -295zM1383 1305.5q5 -13.5 32 -13.5h121v-1048h-121q-26 0 -31 -13.5t13 -31.5l184 -187q15 -12 31 -12t33 12l184 187q19 18 13.5 31.5t-34.5 13.5h-118v1048h118q29 0 34.5 13.5t-13.5 33.5l-184 185q-16 12 -31 12q-20 0 -33 -12 l-184 -185q-19 -20 -14 -33.5z" />
<glyph unicode="&#xf035;" horiz-adv-x="1536" d="M0 233q0 -18 12 -30l187 -187q18 -19 31.5 -13.5t13.5 34.5v119h1048v-119q0 -29 13.5 -34.5t33.5 13.5l185 187q12 12 12 30q0 19 -12 31l-185 185q-20 20 -33.5 14t-13.5 -33v-121h-1048v121q0 27 -13.5 33t-31.5 -14l-187 -185q-12 -14 -12 -31zM0 1233q22 -22 53 -35 q13 0 33 29q76 97 117 123q5 4 41 7q25 2 78 4q14 0 42.5 0.5t42.5 1.5q28 1 62 1h123q41 0 59 -2q19 -6 19 -19q0 -18 1 -47q1 -16 1.5 -52t0.5 -55q3 -258 3 -281q0 -85 -1 -120t-1 -71q-5 -34 -10 -45q-44 -22 -132 -41q-54 -12 -73 -39v-29q2 -6 2 -20q13 0 24 1 q17 2 43 3q17 1 53.5 3.5t51.5 3.5q39 3 53 3q170 0 236 -6q63 -6 157 -6h33q0 10 1 14t1 10q0 7 -1 14q-2 10 -3 25q-4 2 -11.5 4.5l-10.5 3.5q-18 4 -27 7q-37 8 -45 10q-15 4 -21 4q-41 6 -53 12q-12 31 -12 92l-2 119v445q0 25 4 57q24 2 35 2h28h98h103q61 0 85 -1 q34 -1 45 -4t24 -13q2 -4 6.5 -13.5t12.5 -27.5t15 -33q27 -67 52 -103q30 5 63 15q4 17 4 41v313h-67q-7 -15 -11 -22q-12 -35 -24 -46l-53 -6h-727l-19 -2h-123h-74h-91q-55 0 -77 1q-23 1 -36 1q-8 8 -37 58q-3 3 -10 14h-56q-11 -27 -20 -70q-49 -173 -78 -233z" />
<glyph unicode="&#xf036;" d="M0 78q0 -33 22.5 -55.5t55.5 -22.5h1689q31 0 53.5 22.5t22.5 55.5v115q0 30 -22.5 52.5t-53.5 22.5h-1689q-33 0 -55.5 -22t-22.5 -53v-115zM0 500q0 -33 22.5 -55.5t55.5 -22.5h1075q31 0 53.5 22.5t22.5 55.5v114q0 33 -22.5 55.5t-53.5 22.5h-1075q-33 0 -55.5 -22.5 t-22.5 -55.5v-114zM0 922q0 -33 22.5 -54.5t55.5 -21.5h1536q31 0 53.5 22t22.5 54v114q0 33 -22.5 55.5t-53.5 22.5h-1536q-33 0 -55.5 -22.5t-22.5 -55.5v-114zM0 1343q0 -30 22.5 -52.5t55.5 -22.5h921q31 0 53.5 22t22.5 53v117q0 31 -22.5 53.5t-53.5 22.5h-921 q-33 0 -55.5 -22.5t-22.5 -53.5v-117z" />
<glyph unicode="&#xf037;" d="M0 78q0 -33 22.5 -55.5t55.5 -22.5h1689q31 0 53.5 22.5t22.5 55.5v115q0 30 -22.5 52.5t-53.5 22.5h-1689q-33 0 -55.5 -22t-22.5 -53v-115zM78 922q0 -33 21.5 -54.5t54.5 -21.5h1536q33 0 55 21.5t22 54.5v114q0 33 -22 55.5t-55 22.5h-1536q-33 0 -54.5 -22.5 t-21.5 -55.5v-114zM307 500q0 -33 22.5 -55.5t55.5 -22.5h1075q31 0 53.5 22.5t22.5 55.5v114q0 33 -22.5 55.5t-53.5 22.5h-1075q-33 0 -55.5 -22.5t-22.5 -55.5v-114zM385 1343q0 -31 22 -53t54 -22h921q33 0 55.5 22t22.5 53v117q0 31 -22.5 53.5t-55.5 22.5h-921 q-32 0 -54 -22.5t-22 -53.5v-117z" />
<glyph unicode="&#xf038;" d="M0 78q0 -33 22.5 -55.5t55.5 -22.5h1689q31 0 53.5 22.5t22.5 55.5v115q0 30 -22.5 52.5t-53.5 22.5h-1689q-33 0 -55.5 -22t-22.5 -53v-115zM154 922q0 -33 22 -54.5t55 -21.5h1536q31 0 53.5 22t22.5 54v114q0 33 -22.5 55.5t-53.5 22.5h-1536q-32 0 -54.5 -22.5 t-22.5 -55.5v-114zM614 500q0 -33 22.5 -55.5t55.5 -22.5h1075q31 0 53.5 22.5t22.5 55.5v114q0 33 -22.5 55.5t-53.5 22.5h-1075q-33 0 -55.5 -22.5t-22.5 -55.5v-114zM768 1343q0 -30 22.5 -52.5t55.5 -22.5h921q31 0 53.5 22t22.5 53v117q0 31 -22.5 53.5t-53.5 22.5 h-921q-33 0 -55.5 -22.5t-22.5 -53.5v-117z" />
<glyph unicode="&#xf039;" d="M0 78q0 -33 22.5 -55.5t55.5 -22.5h1689q31 0 53.5 22.5t22.5 55.5v115q0 30 -22.5 52.5t-53.5 22.5h-1689q-33 0 -55.5 -22t-22.5 -53v-115zM0 500q0 -33 22.5 -55.5t55.5 -22.5h1689q31 0 53.5 22.5t22.5 55.5v114q0 33 -22.5 55.5t-53.5 22.5h-1689q-33 0 -55.5 -22.5 t-22.5 -55.5v-114zM0 922q0 -33 22.5 -54.5t55.5 -21.5h1689q31 0 53.5 22t22.5 54v114q0 33 -22.5 55.5t-53.5 22.5h-1689q-33 0 -55.5 -22.5t-22.5 -55.5v-114zM0 1343q0 -30 22.5 -52.5t55.5 -22.5h1689q31 0 53.5 22t22.5 53v117q0 31 -22.5 53.5t-53.5 22.5h-1689 q-33 0 -55.5 -22.5t-22.5 -53.5v-117z" />
<glyph unicode="&#xf03a;" d="M0 78q0 -33 22.5 -55.5t55.5 -22.5h153q31 0 53.5 22.5t22.5 55.5v115q0 30 -22.5 52.5t-53.5 22.5h-153q-33 0 -55.5 -22t-22.5 -53v-115zM0 500q0 -33 22.5 -55.5t55.5 -22.5h153q31 0 53.5 22.5t22.5 55.5v114q0 33 -22.5 55.5t-53.5 22.5h-153q-33 0 -55.5 -22.5 t-22.5 -55.5v-114zM0 922q0 -33 22.5 -54.5t55.5 -21.5h153q31 0 53.5 22t22.5 54v114q0 33 -22.5 55.5t-53.5 22.5h-153q-33 0 -55.5 -22.5t-22.5 -55.5v-114zM0 1343q0 -30 22.5 -52.5t55.5 -22.5h153q31 0 53.5 22t22.5 53v117q0 31 -22.5 53.5t-53.5 22.5h-153 q-33 0 -55.5 -22.5t-22.5 -53.5v-117zM461 78q0 -33 22.5 -55.5t55.5 -22.5h1228q31 0 53.5 22.5t22.5 55.5v115q0 30 -22.5 52.5t-53.5 22.5h-1228q-33 0 -55.5 -22t-22.5 -53v-115zM461 500q0 -33 22.5 -55.5t55.5 -22.5h1228q31 0 53.5 22.5t22.5 55.5v114 q0 33 -22.5 55.5t-53.5 22.5h-1228q-33 0 -55.5 -22.5t-22.5 -55.5v-114zM461 922q0 -33 22.5 -54.5t55.5 -21.5h1228q31 0 53.5 22t22.5 54v114q0 33 -22.5 55.5t-53.5 22.5h-1228q-33 0 -55.5 -22.5t-22.5 -55.5v-114zM461 1343q0 -30 22.5 -52.5t55.5 -22.5h1228 q31 0 53.5 22t22.5 53v117q0 31 -22.5 53.5t-53.5 22.5h-1228q-33 0 -55.5 -22.5t-22.5 -53.5v-117z" />
<glyph unicode="&#xf03b;" d="M0 756q0 -39 39 -39h213v-152q0 -33 16 -39t39 17l215 215q17 18 16.5 36.5t-16.5 34.5l-215 215q-22 23 -38.5 17t-16.5 -37v-154h-213q-39 0 -39 -39v-75zM614 39q0 -39 39 -39h76q39 0 39 39v1458q0 39 -39 39h-76q-39 0 -39 -39v-1458zM922 78q0 -33 22 -55.5 t55 -22.5h768q31 0 53.5 22.5t22.5 55.5v115q0 30 -22.5 52.5t-53.5 22.5h-768q-32 0 -54.5 -22t-22.5 -53v-115zM922 500q0 -33 22 -55.5t55 -22.5h615q31 0 53.5 22.5t22.5 55.5v114q0 33 -22.5 55.5t-53.5 22.5h-615q-32 0 -54.5 -22.5t-22.5 -55.5v-114zM922 922 q0 -33 22 -54.5t55 -21.5h691q33 0 55 21.5t22 54.5v114q0 33 -22 55.5t-55 22.5h-691q-32 0 -54.5 -22.5t-22.5 -55.5v-114zM922 1343q0 -31 22 -53t55 -22h537q33 0 55.5 22t22.5 53v117q0 31 -22.5 53.5t-55.5 22.5h-537q-32 0 -54.5 -22.5t-22.5 -53.5v-117z" />
<glyph unicode="&#xf03c;" d="M0 78q0 -33 22.5 -55.5t53.5 -22.5h768q33 0 55.5 22.5t22.5 55.5v115q0 30 -22.5 52.5t-55.5 22.5h-768q-31 0 -53.5 -22t-22.5 -53v-115zM0 500q0 -33 22.5 -55.5t53.5 -22.5h614q33 0 55.5 22.5t22.5 55.5v114q0 33 -22.5 55.5t-55.5 22.5h-614q-31 0 -53.5 -22.5 t-22.5 -55.5v-114zM0 922q0 -32 22.5 -54t53.5 -22h692q31 0 53.5 22t22.5 54v114q0 33 -22.5 55.5t-53.5 22.5h-692q-31 0 -53.5 -22.5t-22.5 -55.5v-114zM0 1343q0 -30 22.5 -52.5t53.5 -22.5h538q31 0 53.5 22t22.5 53v117q0 31 -22.5 53.5t-53.5 22.5h-538 q-31 0 -53.5 -22.5t-22.5 -53.5v-117zM1075 39q0 -39 39 -39h76q16 0 27.5 11.5t11.5 27.5v1458q0 16 -11.5 27.5t-27.5 11.5h-76q-39 0 -39 -39v-1458zM1305 743q0 -17 14 -36l217 -218q23 -21 38 -14.5t15 37.5v154h215q17 0 28 11.5t11 27.5v75q0 17 -11.5 28t-27.5 11 h-215v152q0 33 -15 39t-38 -17l-217 -215q-14 -20 -14 -35z" />
<glyph unicode="&#xf03d;" d="M0 324q0 -92 69 -163q67 -69 162 -69h768q96 0 162 69q68 71 68 163v237l483 -471q22 -22 55 -22q13 0 29 6q47 20 47 69v1127q0 49 -47 69q-15 5 -29 7q-32 0 -55 -23l-483 -471v240q0 94 -68 162q-69 67 -162 67h-768q-92 0 -162 -67q-69 -67 -69 -162v-768z" />
<glyph unicode="&#xf03e;" d="M0 115q0 -47 34 -81t81 -34h1614q47 0 80.5 34t33.5 81v1306q0 47 -33.5 81t-80.5 34h-1614q-47 0 -81 -34t-34 -81v-1306zM154 154v1228h1536v-1228h-1536zM307 307h1229v422l-410 424l-354 -537l-188 156l-277 -360v-105zM307 1073q0 -63 45 -108t111 -45q63 0 108 45 t45 108q0 66 -45 111t-108 45q-66 0 -111 -45t-45 -111z" />
<glyph unicode="&#xf040;" horiz-adv-x="1536" d="M0 0l418 137l866 867l-280 280l-867 -866zM287 408q0 12 10 22l690 688q7 10 21 10q12 0 22 -10q20 -23 0 -43l-690 -690q-10 -8 -21 -8q-14 0 -23 9t-9 22zM1102 1382l280 -280l119 119q35 35 35 84t-35 84l-55 57l-57 55q-35 35 -84 35t-84 -35z" />
<glyph unicode="&#xf041;" horiz-adv-x="1128" d="M0 1001q0 -152 90 -301l381 -663q39 -68 93 -68t95 68l379 661q90 149 90 303q0 115 -43 218.5t-121 182.5q-78 78 -181 121.5t-218 43.5t-218.5 -43.5t-181.5 -121.5t-121.5 -182t-43.5 -219zM285 1001q0 117 82 199t198 82q118 0 198 -82q81 -83 81 -199t-81 -197 t-198 -81q-115 0 -198 81q-82 80 -82 197z" />
<glyph unicode="&#xf042;" horiz-adv-x="1597" d="M0 768q0 -163 61.5 -309t172.5 -256q110 -111 256 -172.5t309 -61.5t308.5 61.5t256.5 172.5q110 110 171.5 256t61.5 309t-61 309t-172 257q-111 110 -256.5 171.5t-308.5 61.5t-309 -61.5t-256 -171.5q-111 -111 -172.5 -257t-61.5 -309zM240 768q0 115 43 216t121 179 q77 77 178.5 120.5t216.5 43.5v-1118q-115 0 -216.5 43.5t-178.5 120.5q-78 78 -121 179t-43 216z" />
<glyph unicode="&#xf043;" horiz-adv-x="1130" d="M0 535q0 -115 43.5 -219t121.5 -182t181.5 -121.5t218.5 -43.5q116 0 220 43.5t181 121.5q78 79 121 182.5t43 218.5q0 84 -23 162q-15 48 -37 90.5t-39.5 68t-59.5 82.5q-44 58 -107 154q-151 227 -205 411q-9 34 -35.5 51t-58.5 13q-31 4 -58 -13t-36 -51 q-34 -111 -90 -217q-89 -172 -221 -348q-56 -77 -70 -100q-90 -139 -90 -303zM248 410q-1 41 22 75q6 10 19 25q12 16 27 39q36 58 49 102q6 21 24 17q18 3 23 -17q7 -27 23 -54q29 -53 55 -87q3 -4 7 -9.5t6.5 -9.5t4.5 -6q22 -31 22 -75q0 -60 -41 -101t-100 -41 t-100 41.5t-41 100.5z" />
<glyph unicode="&#xf044;" d="M0 307q0 -124 90 -216q89 -91 217 -91h1075q125 0 216 91q92 92 92 216v637l-193 -192v-445q0 -47 -34 -80.5t-81 -33.5h-1075q-47 0 -80.5 33.5t-33.5 80.5v922q0 47 33.5 80.5t80.5 33.5h905l191 191q-6 0 -10 1q-5 1 -11 1h-1075q-127 0 -217 -90t-90 -217v-922z M631 324l330 108l651 651l-221 222l-652 -652zM866 629q-18 17 0 35l510 510q5 4 10.5 6t10.5 0.5t10 -4t7.5 -7t4 -9.5t-0.5 -10.5t-7 -10.5l-512 -510q-6 -8 -16 -8q-11 0 -17 8zM1501 1415l221 -221l95 92q28 29 27.5 66.5t-27.5 66.5l-45 45l-46 45q-26 29 -65 29 t-68 -29z" />
<glyph unicode="&#xf045;" d="M0 307q0 -124 90 -216q89 -91 217 -91h1075q125 0 216 91q92 92 92 216v287l-129 -127q-32 -29 -64 -49v-111q0 -47 -34 -80.5t-81 -33.5h-1075q-47 0 -80.5 33.5t-33.5 80.5v922q0 47 33.5 80.5t80.5 33.5h520q145 58 310 78v52q0 31 6 63h-836q-127 0 -217 -90 t-90 -217v-922zM385 389q0 -23 4 -43q5 -27 29 -27q26 0 31 27q34 245 248 390q234 159 630 159v-260q0 -57 28.5 -69.5t69.5 28.5l392 391q26 25 26.5 64.5t-26.5 64.5l-392 391q-41 41 -69.5 28.5t-28.5 -69.5v-231q-464 -4 -712 -238q-115 -107 -172.5 -253.5 t-57.5 -315.5v-37z" />
<glyph unicode="&#xf046;" d="M0 307q0 -124 90 -216q89 -91 217 -91h1075q125 0 216 91q92 92 92 216v518l-193 -192v-326q0 -47 -34 -80.5t-81 -33.5h-1075q-47 0 -80.5 33.5t-33.5 80.5v922q0 47 33.5 80.5t80.5 33.5h940l187 187q-25 6 -52 6h-1075q-127 0 -217 -90t-90 -217v-922zM385 967 q0 -33 23 -56l393 -395l100 -98q23 -23 56 -23q32 0 55 23l809 809q22 22 22.5 54t-22.5 56l-99 99q-22 22 -55 22.5t-57 -22.5l-654 -656l-340 340q-23 23 -54 23q-33 0 -56 -23l-98 -98q-23 -23 -23 -55z" />
<glyph unicode="&#xf047;" horiz-adv-x="1597" d="M0 768q0 -25 18 -43l256 -256q27 -27 45.5 -19.5t18.5 46.5v176h360v-365h-172q-39 0 -46 -18t20 -45l256 -256q18 -19 43 -18.5t43 18.5l256 256q28 26 20 44.5t-47 18.5h-172v365h361v-176q0 -39 18 -46.5t45 19.5l256 256q18 18 18 43t-18 43l-256 256 q-27 27 -45 19.5t-18 -46.5v-170h-361v359h172q39 0 46.5 18t-19.5 45l-256 256q-18 19 -43 18.5t-43 -18.5l-256 -256q-27 -26 -19 -44.5t45 -18.5h172v-359h-360v170q0 39 -18.5 46.5t-45.5 -19.5l-256 -256q-18 -18 -18 -43z" />
<glyph unicode="&#xf048;" horiz-adv-x="1075" d="M0 76v1382q0 33 22.5 55.5t53.5 22.5h153q33 0 55.5 -22.5t22.5 -55.5v-1382q0 -31 -22.5 -53.5t-55.5 -22.5h-153q-31 0 -53.5 22.5t-22.5 53.5zM307.5 768q0.5 -27 16.5 -45l653 -705q23 -28 63 -14q35 17 35 57v1412q0 41 -35 59q-15 4 -22 4q-28 0 -41 -18l-653 -707 q-17 -16 -16.5 -43z" />
<glyph unicode="&#xf049;" d="M0 76v1382q0 33 22.5 55.5t53.5 22.5h153q33 0 55.5 -22.5t22.5 -55.5v-1382q0 -31 -22.5 -53.5t-55.5 -22.5h-153q-31 0 -53.5 22.5t-22.5 53.5zM307.5 768q0.5 -27 16.5 -45l653 -705q23 -28 63 -14q35 17 35 57v1412q0 41 -35 59q-15 4 -22 4q-28 0 -41 -18l-653 -707 q-17 -16 -16.5 -43zM1075.5 768q0.5 -27 16.5 -45l653 -705q23 -28 63 -14q35 17 35 57v1412q0 41 -35 59q-15 4 -22 4q-28 0 -41 -18l-653 -707q-17 -16 -16.5 -43z" />
<glyph unicode="&#xf04a;" horiz-adv-x="1536" d="M0 767q0 -27 16 -44l654 -705q26 -30 62 -14t36 57v1412q0 43 -35 57q-12 6 -22 6q-27 0 -41 -18l-654 -707q-16 -17 -16 -44zM768 767q0 -27 16 -44l654 -705q26 -30 62 -14t36 57v1412q0 43 -35 57q-12 6 -22 6q-27 0 -41 -18l-654 -707q-16 -17 -16 -44z" />
<glyph unicode="&#xf04b;" horiz-adv-x="1349" d="M0 70q0 -40 35 -60q16 -10 35 -10q18 0 34 10l1211 697q35 24 35 61q0 35 -35 61l-1211 697q-32 23 -68 1.5t-36 -61.5v-1396z" />
<glyph unicode="&#xf04c;" horiz-adv-x="1536" d="M0 70q0 -29 20.5 -49.5t49.5 -20.5h489q29 0 49.5 20.5t20.5 49.5v1396q0 29 -20.5 49.5t-49.5 20.5h-489q-29 0 -49.5 -20.5t-20.5 -49.5v-1396zM907 70q0 -29 20.5 -49.5t49.5 -20.5h489q29 0 49.5 20.5t20.5 49.5v1396q0 29 -20.5 49.5t-49.5 20.5h-489 q-29 0 -49.5 -20.5t-20.5 -49.5v-1396z" />
<glyph unicode="&#xf04d;" horiz-adv-x="1536" d="M0 70q0 -29 20.5 -49.5t49.5 -20.5h1396q29 0 49.5 20.5t20.5 49.5v1396q0 29 -20.5 49.5t-49.5 20.5h-1396q-29 0 -49.5 -20.5t-20.5 -49.5v-1396z" />
<glyph unicode="&#xf04e;" horiz-adv-x="1536" d="M0 61q0 -40 35 -57q15 -4 22 -4q25 0 41 18l654 705q16 17 16 45t-16 45l-654 705q-23 28 -63 14q-35 -18 -35 -57v-1414zM768 61q0 -40 35 -57q15 -4 22 -4q25 0 41 18l654 705q16 17 16 45t-16 45l-654 705q-23 28 -63 14q-35 -18 -35 -57v-1414z" />
<glyph unicode="&#xf050;" d="M0 61q0 -40 35 -57q15 -4 22 -4q25 0 41 18l654 705q16 17 16 45t-16 45l-654 705q-23 28 -63 14q-35 -18 -35 -57v-1414zM768 61q0 -40 35 -57q15 -4 22 -4q25 0 41 18l654 705q16 17 16 45t-16 45l-654 705q-23 28 -63 14q-35 -18 -35 -57v-1414zM1536 76v1382 q0 33 22.5 55.5t53.5 22.5h153q33 0 55.5 -22.5t22.5 -55.5v-1382q0 -31 -22.5 -53.5t-55.5 -22.5h-153q-31 0 -53.5 22.5t-22.5 53.5z" />
<glyph unicode="&#xf051;" horiz-adv-x="1075" d="M0 61q0 -40 35 -57q15 -4 22 -4q25 0 41 18l654 705q16 17 16 45t-16 45l-654 705q-23 28 -63 14q-35 -18 -35 -57v-1414zM768 76v1382q0 33 22.5 55.5t53.5 22.5h153q33 0 55.5 -22.5t22.5 -55.5v-1382q0 -31 -22.5 -53.5t-55.5 -22.5h-153q-31 0 -53.5 22.5t-22.5 53.5 z" />
<glyph unicode="&#xf052;" horiz-adv-x="1536" d="M0 70q0 -29 20.5 -49.5t49.5 -20.5h1396q29 0 49.5 20.5t20.5 49.5v198q0 29 -20.5 49.5t-49.5 20.5h-1396q-29 0 -49.5 -20.5t-20.5 -49.5v-198zM6 594q16 -43 64 -43h1396q48 0 64 43q19 43 -14 76l-699 698q-20 21 -49 20.5t-49 -20.5l-699 -698q-32 -33 -14 -76z" />
<glyph unicode="&#xf053;" horiz-adv-x="964" d="M0 765q0 -38 29 -67l671 -673q29 -29 68 -29t68 29l100 102q29 29 29 67q0 37 -29 66l-508 500l508 510q29 29 29 67q0 39 -29 68l-100 100q-29 29 -68 29t-68 -29l-671 -674q-29 -29 -29 -66z" />
<glyph unicode="&#xf054;" horiz-adv-x="964" d="M0 195q0 -39 29 -68l100 -100q29 -29 68 -29q38 0 67 29l672 671q29 29 29 68t-29 68l-672 673q-29 29 -67 29q-39 0 -68 -29l-100 -102q-29 -29 -29 -66q0 -38 29 -67l508 -502l-508 -508q-29 -29 -29 -67z" />
<glyph unicode="&#xf055;" horiz-adv-x="1597" d="M0 768q0 -163 61.5 -309t172.5 -256q110 -111 256 -172.5t309 -61.5t308.5 61.5t256.5 172.5q110 110 171.5 256t61.5 309t-61 309t-172 257q-111 110 -256.5 171.5t-308.5 61.5t-309 -61.5t-256 -171.5q-111 -111 -172.5 -257t-61.5 -309zM338 688v158q0 33 33 33h313 v346q0 32 33 32h164q16 1 24 -7t8 -25v-346h314q13 0 23 -9.5t10 -23.5v-158q0 -14 -10 -23.5t-23 -9.5h-314v-344q2 -32 -32 -32h-164q-33 -1 -33 32v344h-313q-33 0 -33 33z" />
<glyph unicode="&#xf056;" horiz-adv-x="1597" d="M0 768q0 -163 61.5 -309t172.5 -256q110 -111 256 -172.5t309 -61.5t308.5 61.5t256.5 172.5q110 110 171.5 256t61.5 309t-61 309t-172 257q-111 110 -256.5 171.5t-308.5 61.5t-309 -61.5t-256 -171.5q-111 -111 -172.5 -257t-61.5 -309zM338 688v158q0 33 33 33h856 q13 0 23 -9.5t10 -23.5v-158q0 -14 -10 -23.5t-23 -9.5h-856q-33 0 -33 33z" />
<glyph unicode="&#xf057;" horiz-adv-x="1597" d="M0 770q0 -155 58 -301q59 -148 175 -264q115 -115 262 -174.5t304 -59.5q156 0 303 59.5t262 174.5t174 261.5t59 303.5t-59 303.5t-174 261.5t-262 174.5t-303 59.5q-157 0 -304 -59.5t-262 -174.5q-114 -114 -173.5 -261t-59.5 -304zM385 505q0 13 10 23l242 244 l-219 219q-26 24 0 47l110 113q10 10 24 10q13 0 23 -10l222 -221l243 244q22 25 47 0l117 -115q23 -24 0 -47l-246 -246l222 -219q23 -24 0 -47l-113 -113q-10 -10 -23 -10q-14 0 -24 10l-219 221l-244 -243q-10 -11 -23.5 -10.5t-23.5 10.5l-115 116q-10 10 -10 24z" />
<glyph unicode="&#xf058;" horiz-adv-x="1597" d="M0 768q0 -163 61.5 -309t172.5 -256q110 -111 256 -172.5t309 -61.5t308.5 61.5t256.5 172.5q110 110 171.5 256t61.5 309t-61 309t-172 257q-111 110 -256.5 171.5t-308.5 61.5t-309 -61.5t-256 -171.5q-111 -111 -172.5 -257t-61.5 -309zM240 718q0 20 14 34l104 106 q17 14 37 14q19 0 33 -14l221 -221q16 -14 35 -14t33 14l452 453q16 14 35 14q18 0 35 -14l104 -107q15 -14 14.5 -34t-14.5 -34l-550 -550q-35 -35 -82 -35h-56q-20 0 -44 10.5t-38 24.5l-319 319q-14 14 -14 34z" />
<glyph unicode="&#xf059;" horiz-adv-x="1597" d="M0 768q0 -163 61.5 -309t172.5 -256q110 -111 256 -172.5t309 -61.5t308.5 61.5t256.5 172.5q110 110 171.5 256t61.5 309t-61 309t-172 257q-111 110 -256.5 171.5t-308.5 61.5t-309 -61.5t-256 -171.5q-111 -111 -172.5 -257t-61.5 -309zM525 1115.5q-2 6.5 1.5 12.5 t5 8.5t11 10.5t12.5 11q14 13 53 35q98 52 199 52q124 0 218 -71q101 -76 101 -209q0 -91 -47 -160q-41 -58 -96 -103q-57 -51 -70 -71q-18 -27 -18 -56v-51q0 -12 -8.5 -21t-20.5 -9h-164q-12 0 -21 9t-9 21v64q0 77 44 143q32 48 89 92q32 29 45.5 42.5t27 36.5t13.5 46 q0 35 -28 57.5t-70 22.5q-26 0 -46 -7q-42 -13 -67 -34l-10 -8q-10 -6 -23 -6q-15 4 -20 12l-95 115q-5 9 -7 15.5zM672 252v156q0 12 9 21t21 9h164q12 0 20.5 -9t8.5 -21v-156q0 -12 -8.5 -21.5t-20.5 -9.5h-164q-12 0 -21 9.5t-9 21.5z" />
<glyph unicode="&#xf05a;" horiz-adv-x="1597" d="M0 768q0 -163 61.5 -309t172.5 -256q110 -111 256 -172.5t309 -61.5t308.5 61.5t256.5 172.5q110 110 171.5 256t61.5 309t-61 309t-172 257q-111 110 -256.5 171.5t-308.5 61.5t-309 -61.5t-256 -171.5q-111 -111 -172.5 -257t-61.5 -309zM573 858v139q0 13 8.5 22 t20.5 9h303q12 0 20.5 -9.5t8.5 -21.5v-577h78q28 0 28 -29v-139q0 -12 -8 -21.5t-20 -9.5h-402q-12 0 -21 9.5t-9 21.5v139q0 12 9 20.5t21 8.5h78v409h-86q-29 0 -29 29zM686 1151v166q0 12 9.5 20.5t21.5 8.5h188q29 0 29 -29v-166q0 -12 -8.5 -21.5t-20.5 -9.5h-188 q-12 0 -21.5 9.5t-9.5 21.5z" />
<glyph unicode="&#xf05b;" horiz-adv-x="1536" d="M0 692q0 -39 39 -39h164q36 -168 159 -291t291 -159v-164q0 -39 39 -39h154q16 0 26.5 11.5t10.5 27.5v164q169 36 292 159q122 122 158 291h164q39 0 39 39v154q0 16 -11.5 26.5t-27.5 10.5h-164q-37 171 -158 292t-292 158v164q0 16 -10.5 27.5t-26.5 11.5h-154 q-39 0 -39 -39v-164q-169 -36 -291 -158q-123 -123 -159 -292h-164q-16 0 -27.5 -10.5t-11.5 -26.5v-154zM365 653h174q15 0 25.5 11.5t10.5 27.5v154q0 16 -10 26.5t-26 10.5h-174q28 105 105 182t183 106v-172q0 -38 39 -38h154q16 0 26.5 11t10.5 27v172 q105 -28 182 -105t106 -183h-172q-16 0 -27 -10.5t-11 -26.5v-154q-1 -39 38 -39h172q-28 -105 -105 -182t-183 -106v174q0 16 -10.5 26t-26.5 10h-154q-16 0 -27.5 -10.5t-11.5 -25.5v-174q-105 28 -182 105t-106 183z" />
<glyph unicode="&#xf05c;" horiz-adv-x="1597" d="M0 768q0 -163 61.5 -309t172.5 -256q110 -111 256 -172.5t309 -61.5t308.5 61.5t256.5 172.5q110 110 171.5 256t61.5 309t-61 309t-172 257q-111 110 -256.5 171.5t-308.5 61.5t-309 -61.5t-256 -171.5q-111 -111 -172.5 -257t-61.5 -309zM240 768q0 115 43 216t121 179 q77 77 178.5 120.5t216.5 43.5q114 0 216 -43.5t179 -120.5q78 -78 121 -179t43 -216t-43 -216t-121 -179t-179 -121t-216 -43t-216.5 43.5t-178.5 120.5q-78 78 -121 179t-43 216zM451 574q0 -17 12 -29l112 -113q13 -12 30 -12q16 0 28 12l166 166l166 -166q12 -12 29 -12 q16 0 28 12l113 113q29 29 0 57l-166 166l166 166q29 28 0 57l-113 113q-28 28 -57 0l-166 -166l-166 166q-29 29 -58 0l-112 -113q-12 -12 -12 -28q0 -17 12 -29l166 -166l-166 -166q-12 -12 -12 -28z" />
<glyph unicode="&#xf05d;" horiz-adv-x="1597" d="M0 768q0 -163 61.5 -309t172.5 -256q110 -111 256 -172.5t309 -61.5t308.5 61.5t256.5 172.5q110 110 171.5 256t61.5 309t-61 309t-172 257q-111 110 -256.5 171.5t-308.5 61.5t-309 -61.5t-256 -171.5q-111 -111 -172.5 -257t-61.5 -309zM240 768q0 115 43 216t121 179 q77 77 178.5 120.5t216.5 43.5q114 0 216 -43.5t179 -120.5q78 -78 121 -179t43 -216t-43 -216t-121 -179t-179 -121t-216 -43t-216.5 43.5t-178.5 120.5q-78 78 -121 179t-43 216zM332 718q0 -18 10 -28l250 -250q12 -12 33 -20t37 -8h114q42 0 70 28l409 410 q11 10 10.5 27.5t-10.5 27.5l-114 115q-10 10 -28 10t-28 -10l-337 -340q-29 -26 -58 0l-178 180q-10 10 -27 10q-18 0 -28 -10l-115 -115q-10 -10 -10 -27z" />
<glyph unicode="&#xf05e;" horiz-adv-x="1597" d="M0 768q0 -163 61.5 -309t172.5 -256q110 -111 256 -172.5t309 -61.5t308.5 61.5t256.5 172.5q110 110 171.5 256t61.5 309t-61 309t-172 257q-111 110 -256.5 171.5t-308.5 61.5t-309 -61.5t-256 -171.5q-111 -111 -172.5 -257t-61.5 -309zM240 768q0 115 43 216t121 179 q77 77 178.5 120.5t216.5 43.5q162 0 301 -90l-770 -770q-90 137 -90 301zM498 297l772 772q88 -139 88 -301q0 -115 -43 -216t-121 -179t-179 -121t-216 -43q-160 0 -301 88z" />
<glyph unicode="&#xf060;" horiz-adv-x="1536" d="M0 768q0 -39 29 -68l671 -671q29 -29 68 -29t68 29l100 100q29 29 29 68q0 38 -29 67l-338 338h844q39 0 66.5 27.5t27.5 66.5v144q0 41 -27.5 68.5t-68.5 27.5h-842l338 338q29 29 29 68q0 38 -29 67l-100 100q-29 29 -68 29t-68 -29l-671 -673q-29 -29 -29 -68z" />
<glyph unicode="&#xf061;" horiz-adv-x="1536" d="M0 698q0 -41 27.5 -68.5t66.5 -27.5h844l-338 -338q-29 -29 -29 -67q0 -39 29 -68l100 -100q29 -29 68 -29t68 29l671 673q29 29 29 67t-29 67l-671 673q-29 29 -68 29t-68 -29l-100 -100q-29 -29 -29 -67q0 -39 29 -68l338 -338h-844q-39 0 -66.5 -27.5t-27.5 -66.5 v-144z" />
<glyph unicode="&#xf062;" horiz-adv-x="1536" d="M-1 768q1 -39 30 -68l100 -100q29 -29 68 -29q38 0 67 29l338 338v-844q0 -40 26.5 -67t67.5 -27h144q39 0 66.5 27.5t27.5 66.5v844l340 -338q29 -29 67 -29q37 0 66 29l100 100q29 29 29 68t-29 68l-671 671q-29 29 -68 29t-68 -29l-673 -671q-29 -29 -28 -68z" />
<glyph unicode="&#xf063;" horiz-adv-x="1536" d="M0 766q0 -39 29 -68l671 -671q29 -29 68 -29t68 29l673 671q29 29 29 68t-29 68l-102 100q-29 29 -66 29q-38 0 -67 -29l-340 -338v844q0 40 -26.5 67t-67.5 27h-144q-39 0 -66.5 -27.5t-27.5 -66.5v-844l-338 338q-29 29 -67 29q-39 0 -68 -29l-100 -100 q-29 -29 -29 -68z" />
<glyph unicode="&#xf064;" d="M0 135q0 -51 6 -102q4 -33 37 -33h2q32 0 37 33q21 148 99.5 273.5t213.5 216.5q295 200 797 204v-330q0 -71 37 -86.5t88 35.5l491 494q35 35 35 82q0 49 -35 82l-491 493q-53 51 -89 36t-36 -87v-293q-587 -4 -902 -302q-145 -136 -217.5 -319.5t-72.5 -396.5z" />
<glyph unicode="&#xf065;" horiz-adv-x="1536" d="M0 86q0 -34 26 -60t62 -26h520q54 0 66 26.5t-27 65.5l-166 166l275 274q12 14 12 32t-12 32l-160 160q-14 12 -33 12t-31 -12l-274 -275l-166 166q-39 37 -65.5 25.5t-26.5 -64.5v-522zM768 973q0 -19 12 -33l160 -158q14 -14 33 -14t31 14l274 273l166 -166 q39 -37 65.5 -25.5t26.5 64.5v522q0 34 -26 60t-62 26h-520q-54 0 -66 -26.5t27 -65.5l166 -166l-275 -274q-12 -14 -12 -31z" />
<glyph unicode="&#xf066;" horiz-adv-x="1536" d="M0 203q0 -19 12 -31l160 -160q14 -14 33 -14t31 14l274 275l166 -166q39 -39 65.5 -28t26.5 65v522q0 35 -25.5 60.5t-62.5 25.5h-520q-54 0 -66 -26.5t27 -65.5l166 -166l-275 -272q-12 -15 -12 -33zM768 854q0 -34 27 -61q19 -25 61 -25h520q54 0 66 26.5t-27 65.5 l-166 166l275 272q12 15 12 34q0 18 -12 30l-160 160q-14 14 -33 14t-31 -14l-274 -275l-166 166q-39 39 -65.5 28t-26.5 -65v-522z" />
<glyph unicode="&#xf067;" horiz-adv-x="1536" d="M0 696q0 -41 27.5 -67.5t68.5 -26.5h506v-508q0 -39 27.5 -66.5t66.5 -27.5h144q39 0 66.5 27.5t27.5 68.5v506h508q39 0 66.5 27.5t27.5 66.5v144q0 39 -27.5 66.5t-66.5 27.5h-508v508q0 39 -27.5 66.5t-66.5 27.5h-144q-41 0 -67.5 -27.5t-26.5 -68.5v-506h-508 q-39 0 -66.5 -27.5t-27.5 -66.5v-144z" />
<glyph unicode="&#xf068;" horiz-adv-x="1536" d="M0 696q0 -41 27.5 -67.5t68.5 -26.5h1346q39 0 66.5 27.5t27.5 66.5v144q0 39 -27.5 66.5t-66.5 27.5h-1348q-39 0 -66.5 -27.5t-27.5 -66.5v-144z" />
<glyph unicode="&#xf069;" horiz-adv-x="1427" d="M2 1018q10 -37 45 -57l334 -193l-334 -193q-35 -20 -44.5 -57t9.5 -72l72 -124q20 -35 58 -45t73 10l332 192v-385q0 -39 27.5 -66.5t68.5 -27.5h141q41 0 69 27.5t28 68.5v383l331 -192q35 -19 73 -9.5t58 44.5l72 124q19 35 9.5 72t-44.5 57l-333 193l333 193 q35 20 44 57t-11 72l-70 124q-20 35 -58 44.5t-73 -9.5l-331 -192v385q0 39 -28 66.5t-69 27.5h-141q-41 0 -68.5 -27.5t-27.5 -68.5v-383l-332 192q-35 19 -73 9.5t-58 -44.5l-72 -124q-20 -35 -10 -72z" />
<glyph unicode="&#xf06a;" horiz-adv-x="1597" d="M0 768q0 -163 61.5 -309t172.5 -256q110 -111 256 -172.5t309 -61.5t308.5 61.5t256.5 172.5q110 110 171.5 256t61.5 309t-61 309t-172 257q-111 110 -256.5 171.5t-308.5 61.5t-309 -61.5t-256 -171.5q-111 -111 -172.5 -257t-61.5 -309zM672 1274q0 11 8.5 21t21.5 10 h193q16 -2 23 -9q8 -13 8 -22l-17 -739q0 -12 -9 -20.5t-21 -8.5h-162q-26 0 -31 29zM680 236v174q0 12 8.5 21t20.5 9h180q12 0 21.5 -9t9.5 -21v-174q0 -13 -9.5 -22t-21.5 -9h-180q-12 0 -20.5 9.5t-8.5 21.5z" />
<glyph unicode="&#xf06b;" horiz-adv-x="1880" d="M0 588q0 -17 11.5 -28t27.5 -11h119v-432q0 -48 34 -82.5t82 -34.5h1332q48 0 83 35t35 82v432h117q17 0 28 11.5t11 27.5v391q0 16 -11.5 27.5t-27.5 11.5h-538q114 0 194 80t80 194q0 115 -80 195t-194 80q-131 0 -205 -94l-158 -203l-158 203q-33 44 -87.5 69 t-116.5 25q-115 0 -195 -80t-80 -195q0 -114 80 -194t195 -80h-539q-16 0 -27.5 -11.5t-11.5 -27.5v-391zM461 1292q0 49 34 84t83 35q47 0 86 -39l151 -196h-237q-50 0 -83.5 33.5t-33.5 82.5zM743 221v797h394v-797q0 -33 -23.5 -56.5t-56.5 -23.5h-234q-32 0 -56 23.5 t-24 56.5zM1065 1176l152 196q39 39 86 39q48 0 82 -35t34 -84t-33.5 -82.5t-82.5 -33.5h-238z" />
<glyph unicode="&#xf06c;" horiz-adv-x="1916" d="M6 135q-17 -41 10 -78q7 -25 30 -51q29 -33 83 -37h4q39 0 64 31q1 2 23 33q25 38 47 75q11 20 26 41q35 48 51 52q6 0 12.5 -1t14.5 -4t14 -5.5t16.5 -8t16 -8.5t17 -9.5t16.5 -8.5q56 -33 90 -45q153 -54 307 -54q236 0 467 123q489 254 579 740q68 336 -65 604 q-21 43 -72 43q-35 0 -58 -9q-44 -18 -81 -61q-26 -28 -39 -41q-59 -63 -198 -83q-89 -13 -255 -13q-10 0 -46 -1t-47.5 -1t-43.5 -1t-46 -2.5t-41 -3.5t-43.5 -5t-38.5 -6.5t-40.5 -9t-36.5 -11.5q-126 -44 -238 -122.5t-192 -183.5q-180 -237 -133 -538q6 -33 21 -63 q2 -5 4.5 -11t4 -9t1.5 -5q1 -6 0 -12q-4 -15 -16.5 -30.5t-24 -25t-37.5 -30.5q-32 -27 -49.5 -43t-41 -47t-36.5 -64zM401 507.5q-2 32.5 21 59.5q196 230 430 332t524 90q36 -2 58 -25.5t20 -58.5q-2 -34 -27 -57t-57 -19q-264 8 -454 -76q-189 -83 -373 -292 q-24 -26 -59 -26.5t-54 18.5q-27 22 -29 54.5z" />
<glyph unicode="&#xf06d;" horiz-adv-x="1445" d="M0 442q0 -215 197 -343q200 -130 526 -130q328 0 526 130q197 129 197 343q0 124 -63 255.5t-173 236.5q-12 16 -35 13q-22 -3 -30.5 -19.5t-1.5 -30.5q9 -62 2 -165q-9 -141 -74 -216q-27 -31 -79 -48.5t-103 -15.5t-89 33t-38 88q0 48 32.5 81.5t79.5 33.5q35 0 63 -18 t42 -49q4 -12 16 -18.5t25 -4.5q31 6 31 39q0 170 -46 283q-33 76 -120 178q-57 62 -71 136q-24 137 15 237q15 41 15 42q9 27 -13 46q-22 18 -47 0q-1 -1 -43 -39q-46 -42 -98 -107q-156 -191 -220 -384q-94 -284 -9 -552q-47 12 -78 49q-46 60 -51 186q-4 91 18 185 q4 13 0 29q-8 18 -31.5 21t-33.5 -13q-111 -107 -174.5 -238t-63.5 -254z" />
<glyph unicode="&#xf06e;" d="M0 722q0 -44 25 -81q155 -252 394 -392q236 -140 503 -140q268 0 504 139q234 138 395 393q22 37 22.5 80.5t-22.5 83.5q-160 252 -395 393q-234 139 -504 139q-267 0 -503 -140q-238 -141 -394 -392q-25 -38 -25 -83zM154 723q73 118 176 215q102 95 217 152 q-94 -127 -94 -277q0 -192 135 -325q134 -136 325 -136t327 136q134 134 134 325q0 168 -108 293q260 -119 424 -383q-137 -219 -332 -336q-207 -125 -436 -125t-436 125q-192 115 -332 336zM614 813q0 60 23.5 115.5t64.5 96.5q40 40 95.5 63.5t115.5 23.5q25 0 41.5 -16 t16.5 -41q0 -24 -17 -41t-41 -17q-77 0 -130.5 -53t-53.5 -131q0 -22 -16.5 -39.5t-40.5 -17.5t-41 17t-17 40z" />
<glyph unicode="&#xf070;" d="M0 767q0 -44 25 -81q186 -296 487 -438l-66 -115q-8 -14 -3.5 -29.5t18.5 -23.5l135 -76q11 -4 18 -4q5 0 11 2q16 4 22 18l774 1383q9 15 4 29.5t-20 23.5l-133 76q-17 8 -29 2q-17 -4 -24 -18l-89 -158q-126 24 -208 24q-266 0 -503 -139q-237 -141 -394 -393 q-25 -38 -25 -83zM154 768q147 241 393 369q-94 -132 -94 -279q0 -114 51 -211t139 -162l-57 -104q-266 120 -432 387zM614 858q0 60 23.5 115.5t64.5 96.5q40 40 95.5 63.5t115.5 23.5q25 0 41.5 -16t16.5 -41q0 -24 -17 -41t-41 -17q-77 0 -130.5 -53t-53.5 -131 q0 -22 -16.5 -39.5t-40.5 -17.5t-41 16.5t-17 40.5zM928 154q269 2 501.5 140t391.5 392q22 37 22.5 80.5t-22.5 83.5q-128 202 -318 338l-76 -137q151 -110 263 -283q-121 -193 -294.5 -312t-379.5 -143zM1081 430q128 50 211 166q82 115 82 262q0 39 -8 82z" />
<glyph unicode="&#xf071;" horiz-adv-x="1775" d="M0 92q0 -45 35.5 -68.5t83.5 -23.5h1538q48 0 83.5 23.5t35.5 68.5q0 37 -23 74l-770 1331q-41 70 -96 70t-96 -70l-768 -1331q-23 -32 -23 -74zM770 1114q0 15 10 25t25 10h166q14 0 24.5 -10.5t10.5 -24.5l-15 -633q0 -14 -10.5 -24.5t-24.5 -10.5h-139 q-14 0 -24.5 10.5t-10.5 24.5zM776 168v147q0 17 10 27t25 10h154q15 0 24.5 -10.5t9.5 -26.5v-147q2 -35 -34 -35h-154q-15 0 -25 10t-10 25z" />
<glyph unicode="&#xf072;" horiz-adv-x="1597" d="M0 541q1 -34 31 -60l274 -207l205 -272q19 -26 59 -31h4q35 0 58 23l31 31q22 22 22 55v10l-35 281q132 81 289 219l455 -586q23 -26 59 -31h4q35 0 57 25l58 57q24 25 24 58q0 14 -6 26l-293 803l150 152q70 67 109.5 157.5t39.5 169.5q0 77 -36 109q-37 37 -109 37 q-77 0 -168.5 -41t-159.5 -109l-151 -149l-803 293q-5 4 -13 4h-14q-29 0 -57 -23l-57 -57q-23 -28 -23 -58v-4q0 -34 31 -59l583 -457q-139 -156 -219 -286l-280 32q-2 2 -10 2q-36 2 -56 -24l-30 -29q-23 -26 -23 -57v-4z" />
<glyph unicode="&#xf073;" horiz-adv-x="1566" d="M0 117q0 -47 35 -82t82 -35h1333q47 0 82 35t35 82v1147q0 47 -35 81.5t-82 34.5h-39v13q0 73 -42 119q-52 55 -150 55q-97 0 -149 -55q-44 -48 -44 -119v-13h-49v13q0 72 -44 119q-55 55 -151 55q-97 0 -149 -55q-43 -47 -43 -119v-13h-49v13q0 72 -43 119 q-52 55 -150 55q-97 0 -149 -55q-43 -47 -43 -119v-13h-39q-47 0 -82 -34.5t-35 -81.5v-1147zM158 158v250h282v-250h-282zM158 446v252h282v-252h-282zM158 737v252h282v-252h-282zM272 1165v228q0 57 76 57t76 -57v-228q0 -57 -76 -57t-76 57zM479 158v250h285v-250h-285z M479 446v252h285v-252h-285zM479 737v252h285v-252h-285zM709 1165v228q0 29 16.5 43t56.5 14q41 0 58.5 -13.5t17.5 -43.5v-228q0 -30 -17.5 -43.5t-58.5 -13.5t-57 13t-16 44zM803 158v250h284v-250h-284zM803 446v252h284v-252h-284zM803 737v252h284v-252h-284z M1126 158v250h283v-250h-283zM1126 446v252h283v-252h-283zM1126 737v252h283v-252h-283zM1143 1165v228q0 57 76 57q75 0 75 -57v-228q2 -57 -75 -57q-76 0 -76 57z" />
<glyph unicode="&#xf074;" d="M0 252q0 -16 11.5 -27.5t27.5 -11.5h219q178 0 328 153q42 43 87.5 103t75 105t76.5 120q113 181 182 260q100 115 193 115h203v-174q0 -41 24.5 -49.5t59.5 20.5l334 277q22 18 22.5 46t-22.5 46l-334 278q-35 29 -59.5 21t-24.5 -49v-185h-203q-178 0 -327 -152 q-98 -100 -242 -331q-116 -185 -180 -259q-99 -114 -193 -114h-219q-16 0 -27.5 -11t-11.5 -27v-154zM0 1108q0 -16 11.5 -26.5t27.5 -10.5h219q74 0 141 -62t148 -180q5 9 9 15q3 4 9 14q52 82 117 178q-97 128 -185 188q-111 76 -239 76h-219q-39 2 -39 -38v-154zM778 481 q92 -123 185 -187q109 -77 237 -77h203v-168q0 -41 24.5 -49.5t59.5 20.5l334 279q22 18 22.5 46t-22.5 46l-334 277q-35 28 -59.5 20t-24.5 -49v-190h-203q-74 0 -141.5 61t-147.5 178q-4 -10 -10 -17q-5 -6 -10 -18q-38 -58 -56 -87q-38 -58 -57 -85z" />
<glyph unicode="&#xf075;" horiz-adv-x="1916" d="M0 866q0 -169 99.5 -313t277.5 -244q-18 -103 -53 -166q-20 -36 -80 -96q-30 -26 -25 -47q9 -36 43 -31q38 6 55 9q8 2 24.5 4.5t25.5 3.5q235 52 411 192q88 -12 180 -12q196 0 370.5 54t306.5 152q133 98 207.5 225t74.5 269q0 143 -74.5 270t-207.5 225 q-132 97 -307 151.5t-370 54.5t-369 -54.5t-307 -151.5t-207.5 -225t-74.5 -270z" />
<glyph unicode="&#xf076;" horiz-adv-x="1566" d="M0 621q0 -133 60.5 -252t169.5 -209t251.5 -140.5t302.5 -50.5q159 0 302 50.5t252 140.5q108 89 168.5 208.5t60.5 252.5v288q0 17 -11.5 28t-27.5 11h-391q-39 0 -39 -39v-288q0 -62 -86 -118q-94 -63 -228 -63q-133 0 -227 63q-86 56 -86 118v288q0 17 -12.5 28 t-28.5 11h-391q-16 0 -27.5 -11.5t-11.5 -27.5v-288zM0 1106q0 -16 11.5 -27.5t27.5 -11.5h391q16 0 28.5 11.5t12.5 27.5v391q0 16 -12.5 27.5t-28.5 11.5h-391q-16 0 -27.5 -11.5t-11.5 -27.5v-391zM1098 1106q0 -39 39 -39h391q16 0 27.5 11.5t11.5 27.5v391 q0 16 -11.5 27.5t-27.5 11.5h-391q-17 0 -28 -11.5t-11 -27.5v-391z" />
<glyph unicode="&#xf077;" horiz-adv-x="1536" d="M-1 355.5q1 -37.5 30 -66.5l100 -103q30 -28 67.5 -28.5t67.5 28.5l500 510l508 -510q28 -28 66.5 -28.5t68.5 28.5l100 103q29 29 29 66q0 38 -29 67l-671 674q-30 28 -68 28.5t-68 -28.5l-673 -674q-29 -29 -28 -66.5z" />
<glyph unicode="&#xf078;" horiz-adv-x="1536" d="M0 919q0 -38 29 -67l671 -674q30 -28 68 -28.5t68 28.5l673 674q29 29 28 66.5t-30 66.5l-100 102q-29 29 -67 29q-39 0 -68 -29l-500 -509l-508 509q-29 29 -67 29q-39 0 -68 -29l-100 -102q-29 -29 -29 -66z" />
<glyph unicode="&#xf079;" horiz-adv-x="1916" d="M2.5 1038.5q12.5 -30.5 67.5 -30.5h249v-920q0 -33 23.5 -56.5t56.5 -23.5h695l-252 281q-11 9 -29 39h-174v680h250q55 0 67.5 30.5t-28.5 75.5l-385 424q-26 29 -64 29q-37 0 -63 -29l-385 -424q-41 -45 -28.5 -75.5zM823 1526l254 -279q6 -8 27 -41h174v-678h-250 q-55 0 -67.5 -30.5t28.5 -75.5l385 -424q26 -29 64 -29q37 0 63 29l385 424q41 45 28.5 75.5t-67.5 30.5h-250v918q0 35 -23 57.5t-56 22.5h-695z" />
<glyph unicode="&#xf07a;" d="M0 1421q0 -39 39 -39h170q16 0 29.5 -10t17.5 -26l215 -1016q6 -24 20 -48q19 -34 29 -38q32 -13 72 -13h919q17 0 28 10.5t11 26.5v78q0 16 -11.5 27.5t-27.5 11.5h-856q-16 0 -29.5 10.5t-17.5 26.5l-35 168h1084q28 0 49 16.5t27 42.5l108 578q7 32 -16 59t-58 27 h-1347l-27 125q-7 25 -19 48q-15 29 -30 38q-46 12 -74 12h-231q-39 0 -39 -39v-76zM582 115q0 -47 33.5 -81t80.5 -34q49 0 83 34t34 81t-34.5 81.5t-82.5 34.5q-47 0 -80.5 -34.5t-33.5 -81.5zM1233 115q0 -47 34 -81t81 -34t80.5 34t33.5 81t-33.5 81.5t-80.5 34.5 q-48 0 -81.5 -34t-33.5 -82z" />
<glyph unicode="&#xf07b;" d="M0 115q0 -47 34 -81t81 -34h1614q47 0 80.5 34t33.5 81v1075q0 48 -33.5 82.5t-80.5 34.5h-693q-47 0 -80.5 33.5t-33.5 80.5t-34 81t-81 34h-692q-47 0 -81 -34t-34 -81v-1306z" />
<glyph unicode="&#xf07c;" d="M0 379l139 428q26 71 89 116q66 46 137 46h1228v221q0 48 -33.5 82.5t-80.5 34.5h-443q-47 0 -80.5 33.5t-33.5 80.5t-34 81t-81 34h-692q-47 0 -81 -34t-34 -81v-1042zM43 0h1462q24 0 48 17t30 40l260 758h-1476q-24 0 -48 -16t-30 -39z" />
<glyph unicode="&#xf07d;" horiz-adv-x="798" d="M1.5 1167.5q9.5 -22.5 57.5 -22.5h203v-754h-203q-47 0 -57 -22.5t23 -57.5l321 -319q23 -23 53 -23q31 0 54 23l319 319q35 35 25 57.5t-58 22.5h-202v754h202q48 0 58 22.5t-23 57.5l-321 319q-23 23 -54 23q-30 0 -53 -23l-319 -319q-35 -35 -25.5 -57.5z" />
<glyph unicode="&#xf07e;" horiz-adv-x="1597" d="M0 729q0 -30 23 -53l319 -320q35 -34 57.5 -24t22.5 57v203h754v-203q0 -48 22 -58t57 23l320 322q22 22 22.5 52t-22.5 54l-320 322q-34 33 -56.5 22.5t-22.5 -57.5v-203h-754v205q0 47 -22.5 56.5t-57.5 -23.5l-319 -322q-23 -23 -23 -53z" />
<glyph unicode="&#xf080;" d="M0 115q0 -47 35 -81t82 -34h1612q47 0 80.5 34t33.5 81v1306q0 47 -33.5 81t-80.5 34h-1612q-47 0 -82 -34t-35 -81v-1306zM154 154v1228h1536v-1228h-1536zM307 264h203v363h-203v-363zM649 264h201v776h-201v-776zM993 264h203v592h-203v-592zM1333 264h203v922h-203 v-922z" />
<glyph unicode="&#xf081;" horiz-adv-x="1536" d="M0 193q0 -79 57 -136t133 -57h1153q80 0 137 57q56 56 56 136v1150q0 80 -56.5 136.5t-136.5 56.5h-1153q-77 0 -133 -56q-57 -57 -57 -137v-1150zM201 559q-19 21 4 39q8 8 20 8q11 0 19 -8q61 -60 153 -66q94 -8 164 39q-33 16 -39 50q-2 6 -2 14q0 10 6 22 q-38 11 -62.5 35t-29.5 41q-10 19 4 33l13 12q-56 33 -68 101q-5 26 20 32q-52 58 -47 121q11 32 39 25q198 -76 283 -125q25 -12 57 -41q72 177 166 235q16 10 31 2l2 -2q22 8 49 13q13 3 25 -9q5 -5 6 -8q25 2 35 -8q23 -21 12 -49q-5 -5 -6 -8t-6 -8q53 -23 94 -72.5 t57 -110.5q0 -3 1 -4t1 -4q5 0 8 -1q2 -1 7 -1q40 0 75 16q19 12 33 -2q31 -24 -22 -77h4q21 3 31 -15.5t-5 -32.5q-47 -51 -129 -57q-48 -155 -200 -256q-152 -100 -345 -100q-142 0 -260 58.5t-198 168.5z" />
<glyph unicode="&#xf082;" horiz-adv-x="1536" d="M2 193q0 -79 57 -136t134 -57h393v643h-103q-14 0 -23 9.5t-9 21.5v168q-2 32 32 32h103v84q0 293 301 293q98 2 188 -24q30 -6 25 -35l-23 -162q-5 -17 -14 -22q-7 -7 -25 -7q-62 15 -114 15q-42 0 -53 -12.5t-11 -55.5v-74h184q13 0 22 -10t9 -24l-12 -168 q0 -12 -9.5 -20.5t-21.5 -8.5h-172v-643h486q79 0 136 57q56 56 56 136v1150q0 80 -56 136.5t-136 56.5h-1153q-78 0 -134 -56q-57 -57 -57 -137v-1150z" />
<glyph unicode="&#xf083;" d="M0 115q0 -47 34 -81t81 -34h1614q47 0 80.5 34t33.5 81v1306q0 47 -33.5 81t-80.5 34h-1614q-47 0 -81 -34t-34 -81v-1306zM154 160v114h1536v-114h-1536zM154 1145v139h565l14 92h957v-231h-1536zM266 1341v93h316v-93h-316zM557 709q0 153 107 258q108 106 258 106 t258 -106q106 -104 106 -258q0 -152 -106 -258q-107 -107 -258 -107t-258 107t-107 258zM672 709q0 -106 73 -177q71 -73 177 -73q104 0 177 73q72 70 72 177q0 105 -72 177t-177 72q-107 0 -177 -72q-73 -73 -73 -177zM743 709q0 73 52.5 126.5t126.5 53.5q18 0 30.5 -12.5 t12.5 -30.5q0 -17 -12.5 -29t-30.5 -12v-2q-40 0 -67.5 -26.5t-27.5 -67.5q0 -16 -12.5 -28.5t-30.5 -12.5q-16 0 -28.5 12.5t-12.5 28.5z" />
<glyph unicode="&#xf084;" horiz-adv-x="1916" d="M30 1034q-73 -243 23 -438q45 -95 133 -158q151 -109 353 -69q201 38 356 198l803 -573q43 -31 94 -22.5t84 51.5q31 43 21.5 95t-52.5 83l-248 178l101 139l102 -76q15 -10 32.5 -6.5t27.5 17.5l49 69q10 15 7 32.5t-18 27.5l-344 247q-16 11 -32.5 8t-26.5 -18l-51 -69 q-10 -15 -7 -32.5t17 -27.5l105 -74l-101 -139l-414 297q50 102 68 204q37 210 -55 375q-46 83 -128 139.5t-184 69.5q-213 27 -422 -120q-101 -71 -179 -179.5t-114 -228.5zM232 849q9 41 36 79q38 52 95.5 75t117.5 13q-29 52 -26 114.5t39 114.5q53 75 142 89 q91 15 163 -38q75 -53 89 -142q15 -91 -38 -163q-38 -52 -95 -74t-118 -12q29 -53 27 -114q-2 -57 -32.5 -103t-72.5 -71q-76 -46 -161 -28q-88 19 -137 99q-47 77 -29 161z" />
<glyph unicode="&#xf085;" horiz-adv-x="1916" d="M0 801q0 -8 23 -14q33 -10 106 -18q9 -1 37 -5q16 -50 39 -94q-11 -18 -49 -66l-10 -14t-11 -14.5t-9 -11.5q-13 -19 -13 -21q0 -6 21 -30q49 -58 95 -97q23 -21 27 -21l10 2q39 33 121 95q42 -25 88 -37q0 -12 3 -37q8 -77 19 -108q8 -23 15 -23h178q8 0 16 23t12 52 q11 61 11 93q37 11 88 37q2 -1 5.5 -4t9.5 -7.5t11 -8.5q33 -26 42 -32q24 -19 41 -31q19 -14 20 -14q6 0 30 21q55 48 98 97q20 25 20 30l-2 10q-26 27 -48 59q-22 28 -45 60q26 51 37 88q14 3 36 4q61 5 108 19q22 6 22 16v178q0 8 -22 14q-52 14 -107 20q-9 1 -37 5 q-17 54 -39 92q16 21 20 26q57 75 62 81q13 17 13 22q0 6 -21 30q-39 42 -97 96q-24 21 -28 21l-8 -4q-25 -21 -60 -46q-10 -7 -31 -23t-32 -23q-42 23 -86 35q-2 12 -5 37q-8 78 -18 110q-8 23 -16 23h-178q-10 0 -16 -23q-6 -18 -11 -52q-10 -76 -10 -95q-48 -12 -90 -37 q-5 4 -24 21q-58 46 -84 64q-19 13 -21 13q-6 0 -29 -20q-53 -46 -97 -97q-21 -24 -21 -30l4 -10q25 -30 47 -59q8 -11 23 -31.5t22 -30.5q-25 -38 -37 -88q-10 0 -37 -3q-81 -9 -108 -18q-23 -8 -23 -16v-180zM420 889q0 76 53 129t129 53q73 0 128 -53q52 -54 52 -129 t-52 -127q-53 -53 -128 -53q-77 0 -128 53q-54 52 -54 127zM1114 373q0 -1 5 -29q2 -10 13 -55q2 -7 13 -58q2 -11 5 -22.5t3 -13.5q2 -11 9 -11h14q49 0 90 4q21 -34 51 -57q-6 -30 -9 -46q-5 -28 -5 -48q0 -10 27 -22q47 -23 122 -42q30 -8 35 -8q7 0 31 40q14 26 24 52 q44 8 78 19q4 -4 17 -14q1 -1 10.5 -9.5t14.5 -12.5q32 -28 42 -28l8 4q2 3 29 26q56 47 90 82q18 20 18 23q0 5 -7 18q-14 27 -34 55q-10 12 -12 18q14 35 23 71q7 2 23 9q5 2 15.5 6t16.5 6q43 16 43 26q0 5 -5 40q-14 81 -30 125q-11 26 -18 26q-53 0 -97 -4 q-21 34 -51 57q7 35 10 47q5 27 5 47q0 11 -27 23q-64 29 -124 42q-28 7 -34 7t-14 -12l-9 -15t-8 -13q-15 -24 -26 -52q-46 -8 -76 -19q-8 8 -16 15q-5 4 -13 11t-13 10q-32 28 -42 28l-8 -4q-8 -8 -28 -24q-66 -55 -90 -81q-19 -19 -19 -24q0 -10 24 -45q21 -35 31 -45 q-20 -42 -25 -76q-1 0 -8.5 -2.5l-13.5 -4.5q-30 -10 -64 -27q-14 -8 -14 -13zM1192 1264q6 -68 4 -109q-2 -37 5 -52.5t29 -18.5q27 -4 75 -5q15 -36 38 -59q0 -1 -2 -6.5t-4 -10.5t-5 -14.5t-4 -13.5q-6 -18 -8 -26q-3 -13 -3 -15q0 -7 24 -20q44 -29 106 -55 q27 -11 30 -11q4 0 13 10q12 13 36 50q7 11 12 16h14q22 -3 58 6q1 -1 13 -15q15 -20 42 -45q10 -10 14 -10q2 0 26 15q61 36 102 69q22 16 22 23q0 1 -5 14q-4 12 -12 27q-10 18 -14 27l-8 16q17 25 31 63q12 3 23 4q15 1 32 6q41 10 41 23q-4 70 -3 107q1 38 -5.5 52.5 t-28.5 17.5q-10 1 -74 7q-20 35 -39 60q6 11 15 45q1 4 3.5 13t4.5 13q4 9 4 15t-23 20q-38 22 -109 55q-27 11 -30 11q-5 0 -12 -10q-15 -21 -17 -24q-22 -29 -30 -42h-14q-22 3 -58 -6q-1 1 -13 15q-16 20 -41 45q-9 9 -13 9q-3 0 -28 -14q-60 -36 -100 -67 q-22 -16 -22 -23q0 -5 17 -41l12 -27q1 -3 3 -7.5t3.5 -7t1.5 -3.5q-20 -31 -31 -64q-13 -3 -22 -4q-43 -6 -63 -16q-13 -6 -13 -12zM1397 367q0 49 35 83.5t84 34.5q51 0 85.5 -34.5t34.5 -83.5q0 -51 -35.5 -86t-84.5 -35q-50 0 -84.5 36t-34.5 85zM1446 1206 q0 45 31.5 77t78.5 32q46 0 77.5 -32t31.5 -79q0 -45 -32 -76.5t-79 -31.5q-45 0 -76.5 31.5t-31.5 78.5z" />
<glyph unicode="&#xf086;" horiz-adv-x="1916" d="M0 997q0 -137 82 -255t225 -197q-14 -79 -44 -134q-17 -32 -64 -79q-9 -8 -10.5 -9t-7.5 -8t-4 -9t1 -11v-2q4 -11 14 -19t21 -6q7 1 22 3.5t22 4.5q29 4 40 7q188 42 336 155q94 -10 145 -10q159 0 301 44t250 123q107 79 167 183t60 219q0 117 -60 220.5t-167 182.5 q-108 79 -250 123t-301 44t-300.5 -44t-248.5 -123q-108 -79 -168.5 -182.5t-60.5 -220.5zM649 258q220 -129 490 -129q51 0 145 10q153 -116 336 -155q13 -3 41 -7q7 -2 22 -4.5l21 -3.5q12 -2 22.5 5.5t12.5 19.5v2q1 2 1 4t-0.5 4.5t-1 4t-2 4t-2.5 4t-3.5 4l-4 4 l-4.5 4.5l-4 4q-40 40 -63 79q-30 46 -45 134q143 79 225 197t82 255q0 215 -207 383q6 -43 6 -84q0 -150 -71.5 -283.5t-199.5 -233.5q-128 -101 -300.5 -156.5t-366.5 -55.5q-51 0 -102 6q-1 -1 -13 -8l-7 -3.5t-7 -4.5z" />
<glyph unicode="&#xf087;" horiz-adv-x="1597" d="M0 193q0 -50 35 -84.5t84 -34.5h375q71 0 143 -23q92 -30 139 -43q151 -39 287 -39q168 0 279 61q140 75 147 228q41 45 58 104t7 119q41 65 41 142q0 47 -18 90q20 60 20 114q0 122 -92 177q-77 45 -200 45q-24 0 -70 -2q-45 -4 -70 -5q60 131 60 220q0 121 -74 211 q-78 94 -197 94q-92 0 -128 -57q-22 -36 -36 -131q-8 -48 -13 -71q-15 -82 -89 -139q-41 -33 -76 -69q-42 -43 -67 -76q-40 -50 -78 -70h-348q-49 0 -84 -34.5t-35 -83.5v-643zM236 276q0 34 22 57t57 23q33 0 56.5 -23.5t23.5 -56.5t-23.5 -56t-56.5 -23q-35 0 -57 22 t-22 57zM492 193v643h2q39 17 65 36q43 31 90 90q54 68 135 134q93 76 114 206q12 76 22 123q1 8 3 13q2 10 20 10h11q68 0 112 -61q40 -58 40 -125q0 -73 -50 -169q-18 -35 -26 -51.5t-17 -46t-9 -55.5q42 -18 120 -18q44 0 91 3q45 3 90 3q80 0 114 -14q60 -25 60 -87 q0 -44 -41 -120q39 -41 39 -78q0 -73 -60 -123q21 -28 21 -68q0 -39 -19 -75.5t-53 -51.5q4 -17 4 -37q0 -104 -109 -151q-73 -33 -198 -33q-114 0 -301 52q-9 2 -37.5 10t-40 11t-36.5 9t-40 8.5t-36.5 6t-41 5t-38.5 1.5z" />
<glyph unicode="&#xf088;" horiz-adv-x="1597" d="M0 309q0 -121 92 -175q77 -46 201 -46q24 0 70 2q12 0 35 2t34 2q-59 -131 -59 -219q0 -119 74 -211q76 -94 196 -94q77 0 108 34q29 31 42 77t20 114q11 106 96 173q41 33 76 69q35 34 68 76q16 19 23.5 27.5t22 20.5t31.5 21h349q49 0 83.5 35t34.5 84v643 q0 49 -34.5 84t-83.5 35h-375q-72 0 -143 23q-77 25 -140 42q-144 39 -286 39q-171 0 -279 -60q-140 -78 -147 -228q-41 -45 -58.5 -104.5t-7.5 -119.5q-41 -64 -41 -141q0 -46 18 -90q-20 -60 -20 -115zM119 309q0 22 7 45.5t13 35.5t21 40q-39 37 -39 78q0 73 59 123 q-20 29 -20 67q0 39 19 75.5t52 51.5q-4 20 -4 37q0 106 110 153q80 34 198 34q121 0 301 -52q5 -1 29.5 -8.5t30.5 -9t28 -7.5t31 -8t28 -6.5t31 -6t29 -3.5t32 -3t31 -1v-643h-2q-43 -18 -66 -35q-45 -34 -89 -90q-60 -73 -136 -135q-91 -74 -112 -206q-9 -58 -23 -124 q-2 -7 -3 -12q-2 -11 -20 -9q-5 1 -12 1q-68 0 -111 60q-40 54 -40 124q0 71 50 169q2 3 5 10q42 82 46 126q1 9 1 17q-44 18 -121 18q-45 0 -89 -3t-91 -3q-76 0 -113 14q-61 23 -61 86zM1202 860q0 35 23 57.5t57 22.5q35 0 57.5 -22.5t22.5 -57.5q0 -34 -22.5 -57 t-57.5 -23q-33 0 -56.5 23.5t-23.5 56.5z" />
<glyph unicode="&#xf089;" horiz-adv-x="837" d="M1 959.5q-9 -27.5 26 -60.5l364 -356l-86 -504q-8 -47 15.5 -63.5t64.5 6.5l453 237v1348q-27 0 -50 -41l-227 -459l-506 -74q-45 -6 -54 -33.5z" />
<glyph unicode="&#xf08a;" horiz-adv-x="1802" d="M0 1073q0 -93 35 -177q63 -150 155 -249q35 -40 39 -41l617 -614q23 -23 55 -23q31 0 57 23l615 612q1 4 39 43q37 38 79 103q111 166 111 323q0 254 -155 385q-130 109 -332 109q-116 0 -240 -75q-91 -55 -174 -138q-91 89 -172 138q-124 75 -240 75q-204 0 -333 -109 q-156 -131 -156 -385zM160 1073q0 189 107 271q84 63 222 63q92 0 208 -87q94 -70 143 -134q24 -31 61 -31t62 31q60 73 142 134q116 87 210 87q136 0 220 -63q107 -82 107 -271q0 -67 -27 -130q-52 -119 -124 -193l-29 -29l-561 -559l-561 559l-28 29q-27 29 -63 80 q-89 131 -89 243z" />
<glyph unicode="&#xf08b;" horiz-adv-x="1689" d="M0 307q0 -125 91 -216t216 -91h461v193h-461q-47 0 -80.5 33.5t-33.5 80.5v922q0 47 33.5 80.5t80.5 33.5h461v193h-461q-125 0 -216 -91t-91 -216v-922zM508 584q0 -33 22.5 -55.5t55.5 -22.5h428v-291q0 -41 39 -57q11 -4 22 -4q25 0 43 18l553 553q19 16 18.5 42 t-18.5 44l-553 553q-26 28 -65 13t-39 -56v-293h-428q-33 0 -55.5 -21.5t-22.5 -54.5v-368z" />
<glyph unicode="&#xf08c;" horiz-adv-x="1536" d="M0 193q0 -80 56.5 -136.5t136.5 -56.5h1150q80 0 137 57q56 56 56 136v1150q0 80 -56.5 136.5t-136.5 56.5h-1150q-80 0 -136 -56q-57 -57 -57 -137v-1150zM207 1192q0 55 40 95t95 40q57 0 97 -40t40 -95q0 -57 -40 -97t-97 -40q-55 0 -95 40t-40 97zM213 240v706 q0 12 9.5 20.5t19.5 8.5h200q29 0 29 -29v-706q0 -11 -8.5 -20t-20.5 -9h-200q-11 0 -20 9.5t-9 19.5zM580 240v706q0 12 9 20.5t19 8.5h195q10 0 16.5 -4.5t8.5 -14.5t2.5 -16t0.5 -18q71 71 201 71q139 0 218 -69.5t79 -206.5v-477q0 -11 -9.5 -20t-19.5 -9h-204 q-12 0 -20.5 9.5t-8.5 19.5v432q0 57 -21.5 83.5t-78.5 26.5q-71 0 -100 -42t-29 -117v-383q0 -11 -8.5 -20t-20.5 -9h-201q-10 0 -19 9.5t-9 19.5z" />
<glyph unicode="&#xf08d;" horiz-adv-x="1916" d="M16 803q21 -66 72 -105q107 -78 268 -8l303 -223q-30 -124 -8.5 -229t94.5 -158q110 -81 279 -27q167 53 317 215l517 -293q8 -6 18 -6q24 1 37.5 23t-8.5 47l-428 410q109 187 114 365q5 177 -104 259q-79 55 -180 47t-215 -73l-301 225q7 82 -12 149q-21 66 -73.5 106 t-121.5 41q-146 2 -298 -122q-75 -61 -138.5 -147t-100.5 -177q-76 -185 -31 -319zM171.5 858.5q-2.5 15.5 6.5 30.5q10 12 27 14.5t31 -6.5q12 -4 72 35q59 39 138 143q11 15 27.5 16.5t30.5 -8.5q12 -10 14.5 -26.5t-6.5 -30.5q-66 -88 -139 -145q-83 -64 -137 -64 q-28 0 -50 14q-12 12 -14.5 27.5zM465 754q27 17 65 51l347 -258q15 -11 16 -25q2 -17 -10 -32t-31 -15q-15 0 -23 8zM830 239q-2 17 8 29q10 15 25.5 18t29.5 -7q13 -13 48 -4q35 7 78 36q102 62 198 191q10 14 26.5 16t28.5 -8q14 -10 16 -26.5t-8 -28.5 q-93 -120 -181 -186q-105 -79 -184 -79q-40 0 -69 23q-14 9 -16 26z" />
<glyph unicode="&#xf08e;" d="M0 307q0 -124 90 -216q89 -91 217 -91h1075q125 0 216 91q92 92 92 216v271q-106 4 -193 69v-340q0 -47 -34 -80.5t-81 -33.5h-1075q-47 0 -80.5 33.5t-33.5 80.5v922q0 47 33.5 80.5t80.5 33.5h582q-6 25 -6 48v88q0 12 2 30q1 5 2 14t2 13h-582q-127 0 -217 -90 t-90 -217v-922zM692.5 522q0.5 -25 16.5 -41l79 -80q16 -16 42 -16q24 0 40 16l772 770v-268q0 -24 16.5 -40.5t41.5 -16.5h86q22 -2 39.5 15t17.5 42v576q0 22 -17 39.5t-40 17.5h-576q-24 0 -41.5 -17t-15.5 -40v-86q0 -25 16 -41.5t41 -16.5h269l-770 -772 q-17 -16 -16.5 -41z" />
<glyph unicode="&#xf090;" horiz-adv-x="1689" d="M0 584q0 -33 22.5 -55.5t55.5 -22.5h428v-291q0 -41 37 -57q15 -4 24 -4q25 0 43 18l553 553q17 16 16.5 42t-16.5 44l-553 553q-28 28 -67 14q-37 -16 -37 -57v-293h-428q-33 0 -55.5 -21.5t-22.5 -54.5v-368zM922 0h460q125 0 216 91q92 92 92 216v922q0 127 -92 217 t-216 90h-460v-193h460q48 0 81.5 -33.5t33.5 -80.5v-922q0 -47 -34 -80.5t-81 -33.5h-460v-193z" />
<glyph unicode="&#xf091;" horiz-adv-x="1689" d="M0 1042q0 -62 44.5 -129.5t122.5 -127.5q172 -134 400 -173q55 -10 94 -42t39 -70q0 -22 -9 -38.5t-18 -23.5t-29 -20q-1 -1 -9 -6t-9 -6t-8 -6t-8.5 -7t-7 -7t-7.5 -8t-5.5 -8.5t-5 -10.5t-3 -11.5t-1.5 -13.5v-21q0 -14 4 -26q2 -7 -4.5 -13t-20.5 -11q-27 -9 -68 -18 q-108 -24 -145 -57q-24 -19 -29 -104q-2 -35 7 -59.5t28 -24.5h985q20 0 28.5 24t6.5 60q-5 85 -29 104q-32 31 -146 57q-42 9 -67 19q-14 4 -20 10t-4 13q6 25 2 47q-2 22 -14 39.5t-19 23t-29 21.5q-21 14 -29 20t-18 23t-10 39q0 38 39 70t92 42q232 37 403 172 q78 61 122.5 128.5t44.5 129.5v187q0 33 -22.5 54.5t-55.5 21.5h-324q2 18 2 28v25q0 110 -19 143q-20 35 -87 35h-678q-67 0 -87 -35t-20 -143v-4v-24q0 -9 2 -25h-323q-33 0 -55.5 -21.5t-22.5 -54.5v-187zM154 1042v109h260q34 -221 78 -365q-143 45 -247 132 q-43 35 -67 69t-24 55zM1198 786q50 162 76 365h262v-109q0 -21 -24 -55t-67 -69q-104 -87 -247 -132z" />
<glyph unicode="&#xf092;" horiz-adv-x="1536" d="M0 193q0 -80 56.5 -136.5t136.5 -56.5h317q4 24 2 60q-2 40 -2 59q0 11 1 17q1 5 1 18q-47 -11 -80 -11q-86 0 -127 26q-26 16 -46 41t-30 44.5t-25 53.5q-17 39 -57 71q-11 10 -31 19t-20 32q0 14 37 14q30 0 57.5 -15.5t40.5 -30t38 -45.5q22 -29 38 -45t45.5 -31 t63.5 -15q27 0 51 8q25 8 49 15q29 100 92 125q-192 22 -284.5 114.5t-92.5 280.5q0 142 88 242q-10 36 -10 90q0 114 41 176h12q47 2 80 -8q59 -18 130 -66q29 -20 65 -39q70 8 131 8t131 -8q39 22 66 40q36 23 62 37q74 40 147 36h12q41 -66 41 -176q0 -51 -10 -90 q90 -104 90 -242q0 -191 -98 -283.5t-294 -113.5q45 -19 65 -66q33 -84 28 -220q-2 -78 -2 -97v-25h337q80 0 137 57q56 56 56 136v1150q0 80 -56.5 136.5t-136.5 56.5h-1150q-80 0 -136 -56q-57 -57 -57 -137v-1150z" />
<glyph unicode="&#xf093;" d="M0 39q0 -39 39 -39h1765q39 0 39 39v614q0 17 -11.5 28t-27.5 11h-229q-16 0 -27.5 -11.5t-11.5 -27.5v-346h-1229v346q0 17 -11.5 28t-27.5 11h-229q-16 0 -27.5 -11.5t-11.5 -27.5v-614zM346 969.5q6 -15.5 39 -15.5h307v-499q0 -33 21.5 -55.5t54.5 -22.5h307 q33 0 55.5 22.5t22.5 55.5v499h307q31 0 38.5 15.5t-15.5 38.5l-506 505q-23 23 -55 23q-33 0 -56 -23l-504 -505q-22 -23 -16 -38.5z" />
<glyph unicode="&#xf094;" horiz-adv-x="1609" d="M2 514q2 -42 9 -82q5 -27 13 -81q11 -87 -6 -142q-27 -85 5 -141q15 -26 44 -43t64 -17h2q36 1 83 13q40 10 77 10h4q104 0 193 -16q93 -17 194 -17h31q76 4 110 6t97 12t110 27q138 46 245 137q80 68 171 189q101 141 138 281q42 163 7 366q-3 14 -7 42t-26 77 q-8 17 -12 39q-3 17 -3 38t1 32t4 39t4 34q14 96 -24 147q-20 31 -78 31q-29 0 -66 -5q-38 -5 -63 -5h-2q-68 0 -178 22q-137 29 -219 29q-78 0 -164 -23l-2 -2q-86 -23 -156 -51q-25 -9 -71 -27q-64 -25 -133 -63q-64 -34 -107 -79q-7 -8 -22 -23.5t-23 -22.5 q-30 -23 -45 -45q-59 -79 -99 -160q-39 -76 -75 -245q-7 -26 -10 -66q-4 -47 -7 -72q-10 -111 -8 -143z" />
<glyph unicode="&#xf095;" horiz-adv-x="1597" d="M0 1169q0 -87 55 -218q44 -110 103 -208q132 -231 319 -412q203 -197 436 -282q69 -28 100.5 -40t90 -26t108.5 -14q84 0 197 50q118 52 152 126q16 39 25 79q11 47 11 79q0 15 -2 23q-11 20 -40 36q-43 21 -107 61q-94 58 -182 106q-41 22 -52 22q-40 0 -120 -102 q-26 -33 -41.5 -51t-36.5 -35t-35 -17q-23 0 -50 18q-11 6 -26.5 15.5t-19.5 11.5q-148 84 -252.5 187.5t-188.5 248.5q-1 1 -11.5 19.5t-15.5 27.5t-10.5 24t-5.5 24q0 6 2 12.5t7 13.5t9.5 12.5t13.5 14t14.5 13.5t17 15t16.5 15q78 70 78 125q0 8 -14 53q-26 75 -68 191 q-17 43 -24 65q-3 6 -8 26q-1 5 -5 15t-5 15q-12 33 -27 44q-25 10 -66 12q-11 0 -37 1.5t-33 1.5q-8 0 -26 -2q-15 -1 -27 0q-97 -45 -161 -167q-58 -111 -58 -229z" />
<glyph unicode="&#xf096;" d="M0 307q0 -125 91 -216t216 -91h1075q125 0 216 91q92 92 92 216v922q0 124 -92 216q-91 91 -216 91h-1075q-125 0 -216 -91t-91 -216v-922zM193 307v922q0 47 33.5 80.5t80.5 33.5h1075q47 0 81 -33.5t34 -80.5v-922q0 -47 -34 -80.5t-81 -33.5h-1075q-47 0 -80.5 33.5 t-33.5 80.5z" />
<glyph unicode="&#xf097;" horiz-adv-x="1253" d="M0 84q0 -47 34 -81t81 -34t80 33l432 432l432 -432q33 -33 80 -33t80.5 34t33.5 81v1337q0 47 -33.5 81t-80.5 34h-1024q-47 0 -81 -34t-34 -81v-1337zM158 186v1194h938v-1194l-469 471z" />
<glyph unicode="&#xf098;" horiz-adv-x="1536" d="M0 193q0 -80 56.5 -136.5t136.5 -56.5h1150q80 0 137 57q56 56 56 136v1150q0 80 -56.5 136.5t-136.5 56.5h-1150q-80 0 -136 -56q-57 -57 -57 -137v-1150zM193 1040q-6 97 44 188q43 82 113 115h8q2 0 24 2q30 3 77 -5q16 -3 22 -4.5t13.5 -9.5t11.5 -23q5 -23 12 -41 q13 -41 27 -76q19 -53 28 -76q1 -3 7 -18t9 -24q9 -23 5 -38q-1 -21 -19 -43q-3 -4 -11 -13t-11 -12.5l-9 -10.5t-10.5 -10.5t-11.5 -9t-14 -10.5q-24 -17 -25 -34q-5 -22 29 -76q121 -203 317 -313q5 -3 38 -23q40 -27 80 21q6 7 14 16.5t13.5 16t8.5 10.5q4 5 17 19.5 t21 24.5q23 27 46 27q19 0 38 -13t36 -24q14 -8 36.5 -20.5l31.5 -17.5q2 -1 28 -16t43 -25q18 -12 37 -21q20 -11 24 -22q7 -14 -4 -67q-9 -45 -18 -65q-24 -51 -102 -86q-99 -52 -203 -36q-42 6 -164 53q-67 24 -143 69q-242 154 -402 431q-37 66 -67 135q-41 87 -45 155z " />
<glyph unicode="&#xf099;" d="M0 399q0 -8 8 -26q127 -177 322 -272t418 -95q286 0 533 148q123 73 212 181t131 243q67 7 131 37q88 41 88 87q0 26 -18 38t-43 8q53 53 53 88q0 18 -13.5 32.5t-31.5 14.5t-57 -16q-42 -17 -88 -17q-15 0 -23 2q-28 103 -92.5 184t-157.5 123q27 23 27 53 q0 33 -24 49.5t-58 16.5q-13 27 -43 27q-29 0 -84 -21q-10 8 -27 8t-24 -6q-85 -51 -162 -170q-58 -90 -107 -213q-52 45 -92 68q-8 4 -21.5 10.5t-36 17.5t-40.5 20q-131 63 -289 128q-66 27 -84 27q-47 0 -47 -60q0 -100 76 -176q-33 -10 -33 -43q0 -47 33.5 -96.5 t77.5 -75.5q-35 -23 -35 -51q0 -43 58 -89q49 -40 95 -55q-8 -18 -8 -39q0 -64 66 -100q-93 -63 -225 -63q-164 -2 -287 108q-16 12 -31 12q-20 0 -33.5 -13.5t-13.5 -33.5z" />
<glyph unicode="&#xf09a;" horiz-adv-x="790" d="M0 862q0 -16 11.5 -27.5t27.5 -11.5h125v-784q0 -16 11.5 -27.5t27.5 -11.5h258q16 0 27.5 11.5t11.5 27.5v784h207q16 0 27 10t11 25l17 205q0 18 -12 30.5t-27 12.5h-223v88q0 53 13 68.5t65 15.5q71 0 139 -16q15 -4 31 6q12 10 16 26l27 199q4 32 -29 43 q-108 31 -232 31q-366 -1 -366 -359v-102h-125q-16 0 -27.5 -12.5t-11.5 -28.5v-203z" />
<glyph unicode="&#xf09b;" horiz-adv-x="1847" d="M0 743q0 -439 254 -620q216 -154 670 -154q450 0 668 154q255 180 255 620q0 246 -149 416l2 4v2q26 71 26 166q0 55 -12 122q-13 74 -37 114h-10q-61 0 -110 -12q-86 -22 -181 -87q-3 -2 -90 -61q-145 41 -362 41q-218 0 -361 -41q-51 33 -91 61q-48 32 -87 52 q-94 47 -205 47h-8q-25 -37 -39 -114q-10 -56 -10 -122q0 -99 27 -166l-3 -2l3 -4q-150 -171 -150 -416zM250 483q0 166 98 255t264 89q83 0 157 -7t157 -7t157 7q73 7 156 7q164 0 261 -86q102 -91 102 -254q0 -180 -110 -277q-87 -77 -260 -101q-107 -15 -306 -15 q-99 0 -155.5 1.5t-142.5 13t-148 34.5q-230 84 -230 340zM494 524q0 -66 26.5 -112.5t65.5 -46.5t66.5 46.5t27.5 112.5t-27.5 113t-66.5 47t-65.5 -47t-26.5 -113zM795 258q16 -47 51 -75.5t78 -28.5q45 0 80 28t51 76q3 19 -14 25.5t-25 -13.5q-10 -34 -35.5 -54.5 t-56.5 -20.5q-66 -1 -93 75q-5 12 -15.5 13t-17.5 -7t-3 -18zM864 369q0 12 17.5 21t42.5 9q24 0 41.5 -9t17.5 -21t-17.5 -21.5t-41.5 -9.5t-42 9.5t-18 21.5zM1167 524q0 66 28 113t67 47q38 0 65 -47t27 -113t-26.5 -112.5t-65.5 -46.5t-67 46.5t-28 112.5z" />
<glyph unicode="&#xf09c;" horiz-adv-x="1880" d="M0 117q0 -47 35 -82t82 -35h1020q47 0 81.5 35t34.5 82v626q0 50 -34 84.5t-82 34.5h-119v156q0 132 92 222q93 91 221 91q131 0 222 -91q92 -92 92 -222v-152q0 -33 22 -55.5t55 -22.5h80q33 0 55.5 22.5t22.5 55.5v152q0 110 -42.5 211t-117.5 177q-76 76 -176.5 118.5 t-212.5 42.5q-111 0 -211.5 -42.5t-176.5 -118.5t-118.5 -176.5t-42.5 -211.5v-156h-665q-47 0 -82 -35t-35 -84v-626zM494 164l65 287q-29 16 -47 46.5t-18 65.5q0 55 39 95t94 40t94 -40t39 -95q0 -35 -18 -65.5t-48 -48.5l66 -285h-266z" />
<glyph unicode="&#xf09d;" d="M0 154q0 -64 45.5 -109t108.5 -45h1536q63 0 108 45.5t45 108.5v1228q0 64 -45 109t-108 45h-1536q-64 0 -109 -45.5t-45 -108.5v-1228zM154 154v575h1536v-575h-1536zM154 1114v268h1536v-268h-1536zM260 250h307v115h-307v-115zM676 250h446v115h-446v-115z" />
<glyph unicode="&#xf09e;" horiz-adv-x="1566" d="M0 236q0 -98 69 -167t167 -69q94 0 166 69q69 67 69 167q0 95 -69 166q-71 69 -166 69q-100 0 -167 -69q-69 -72 -69 -166zM0 819q0 -28 21 -51t51 -27q265 -24 455 -214t214 -455q4 -31 26.5 -51.5t51.5 -20.5h158q35 0 57 25q26 24 21 59q-15 190 -94.5 360t-212.5 304 q-134 133 -304 213t-360 94q-2 0 -3 1t-3 1q-30 0 -53 -23q-25 -22 -25 -57v-158zM0 1331q0 -31 21.5 -53.5t52.5 -24.5q234 -14 443.5 -109t370.5 -256t256 -370t109 -444q2 -31 24.5 -52.5t53.5 -21.5h158q33 0 55 25q27 26 23 57q-17 297 -136.5 562t-320.5 466 q-202 202 -467 321.5t-561 135.5h-4q-30 0 -53 -23q-25 -22 -25 -55v-158z" />
<glyph unicode="&#xf0a0;" d="M0 193q0 -80 56.5 -136.5t136.5 -56.5h1458q79 0 136 57q56 56 56 136v382q0 23 -6 46l-12 45l-238 727q-20 63 -75 103t-121 40h-938q-66 0 -121.5 -40t-75.5 -103l-238 -727l-12 -45q-6 -23 -6 -46v-382zM154 193v382q0 17 11.5 28t27.5 11h1458q16 0 27.5 -11.5 t11.5 -27.5v-382q0 -17 -11.5 -28t-27.5 -11h-1458q-17 0 -28 11.5t-11 27.5zM213 768l188 578q5 15 20.5 25.5t31.5 10.5h938q16 0 31.5 -10.5t19.5 -25.5l188 -578h-1417zM1057 385q0 -41 27.5 -68.5t68.5 -27.5q39 0 66.5 27.5t27.5 68.5q0 39 -27.5 66.5t-66.5 27.5 q-41 0 -68.5 -27.5t-27.5 -66.5zM1364 385q0 -41 27.5 -68.5t68.5 -27.5q39 0 66.5 27.5t27.5 68.5q0 39 -27.5 66.5t-66.5 27.5q-41 0 -68.5 -27.5t-27.5 -66.5z" />
<glyph unicode="&#xf0a1;" d="M0 754q0 -64 45.5 -109t108.5 -45h200q-24 -80 -24 -151q0 -122 50 -269q21 -61 40 -125q30 -29 83.5 -43t112.5 -11t107.5 26.5t67.5 64.5q-89 74 -115 120q-41 70 2 142q-57 57 -35 136q10 36 37.5 63t69.5 39q208 -23 455 -141q235 -115 370 -250q63 0 108.5 45 t45.5 108v369q50 12 82 52.5t32 92.5q0 53 -32.5 93.5t-81.5 52.5v368q0 64 -45.5 109t-108.5 45q-155 -155 -422 -275q-272 -124 -500 -124h-499q-64 0 -109 -45.5t-45 -108.5v-229zM807 741v254q189 28 412 126q194 86 356 212v-930q-156 122 -356 211q-216 97 -412 127z " />
<glyph unicode="&#xf0a2;" horiz-adv-x="1759" d="M0 317q4 -68 55.5 -113.5t120.5 -45.5h469q19 -82 84.5 -135.5t151.5 -53.5q85 0 150 53t83 136h469q69 0 120.5 45t55.5 114q-186 142 -277 376q-78 200 -91 466q0 80 -49.5 154.5t-131.5 132.5q-77 55 -166 88t-163 33q-79 0 -166 -32.5t-164 -89.5 q-79 -58 -127.5 -133.5t-54.5 -156.5q-21 -292 -88 -464q-89 -231 -281 -374zM238 317q145 167 216 390q61 196 74 440q2 49 38.5 97t93.5 85q53 35 113.5 56.5t107.5 21.5q112 0 222 -78q123 -87 130 -190q19 -254 76 -436q70 -228 213 -386h-1284zM713 209q0 20 20 20 q19 0 19 -20q0 -53 38 -90t91 -37q18 -2 18 -21q0 -20 -18 -20q-70 0 -119 49t-49 119z" />
<glyph unicode="&#xf0a3;" horiz-adv-x="1597" d="M0 573q0 -24 16 -44.5t41 -26.5l195 -49q-6 -19 -15 -48q-9 -24 -19 -61q-23 -79 -23 -106q0 -30 21.5 -52t51.5 -22q31 0 107 24q21 6 61 18q38 12 47 15l49 -194q7 -25 27 -41.5t45 -16.5q35 0 53 23l142 143l139 -143q23 -23 55 -23q25 0 45.5 16.5t26.5 41.5l49 194 q39 -12 49 -15q29 -9 60 -18q74 -24 106 -24q30 0 52 22t22 52q0 27 -23 106q-7 21 -19 61q-9 30 -15 48l194 49q24 6 41 26q17 19 16.5 49t-22.5 52l-145 139l145 139q22 22 22 56q0 24 -16 44.5t-41 26.5l-194 49q12 39 15 49q18 57 19 60q23 79 23 106q0 30 -22 52 t-52 22q-29 0 -106 -23q-21 -7 -61 -19q-30 -9 -48 -15l-49 194q-6 27 -26.5 42.5t-47.5 15.5q-30 0 -53 -23l-139 -143l-142 143q-18 23 -53 23q-24 0 -45 -16.5t-27 -41.5l-49 -194q-9 3 -47 15q-40 12 -61 19q-79 23 -107 23q-30 0 -51.5 -21.5t-21.5 -52.5 q0 -27 23 -106q17 -57 34 -109l-195 -49q-24 -6 -40.5 -26t-16.5 -45q0 -33 23 -56l143 -139l-143 -139q-23 -23 -23 -56z" />
<glyph unicode="&#xf0a4;" horiz-adv-x="1916" d="M0 193q0 -50 35 -84.5t84 -34.5h375q38 0 86.5 -9t74.5 -16.5t91 -26.5q177 -53 284 -53q148 0 242 70q104 78 104 221q39 45 56.5 103.5t7.5 117.5q28 48 39 107h200q103 0 170 67q68 68 68 166q0 99 -68 169q-64 66 -170 69h-510q54 110 54 203q0 121 -74 211 q-78 94 -197 94q-78 0 -109 -34q-50 -54 -61 -190q-8 -106 -95 -174q-45 -37 -77 -69q-11 -13 -33 -37q-12 -13 -34 -39q-17 -21 -24 -29t-21 -20t-31 -21h-348q-49 0 -84 -34.5t-35 -83.5v-643zM233 276q0 34 22.5 57t57.5 23q33 0 56.5 -23.5t23.5 -56.5t-23.5 -56 t-56.5 -23q-35 0 -57.5 22t-22.5 57zM489 193v643h5q39 17 65 36q43 31 90 90q53 67 134 134q92 76 113 206q12 76 22 123q1 8 3 13q2 10 20 10h11q67 0 111 -61q39 -59 39 -125q0 -67 -49 -169l-9 -18t-10 -19.5t-8.5 -17.5t-8.5 -20l-6 -18t-5.5 -20t-3 -19t-1.5 -21 q226 0 338 -1t340 -1q52 0 84.5 -32t32.5 -85q0 -50 -32.5 -81t-84.5 -31q-119 0 -178 -1t-178 -1q39 -39 39 -78q0 -73 -59 -123q20 -29 20 -68t-19 -75.5t-53 -51.5q4 -21 4 -51q0 -90 -69 -134q-57 -36 -156 -36q-14 0 -29 1t-27 2t-29 4t-26 4t-28 5.5t-26 6t-27.5 7.5 t-25 7t-27.5 7.5t-26 7.5q-5 1 -37 10t-40.5 11t-35.5 9t-41 9t-36.5 6t-41.5 5t-38 1z" />
<glyph unicode="&#xf0a5;" horiz-adv-x="1916" d="M0 821q0 -97 69 -166q67 -67 169 -67h200q11 -61 39 -107q-10 -59 7.5 -117.5t56.5 -103.5q0 -143 104 -221q94 -70 242 -70q106 0 285 53q63 19 90 26.5t75 16.5t86 9h375q49 0 84 35t35 84v643q0 49 -35 83.5t-84 34.5h-348q-38 21 -76 70l-33 39q-12 13 -34 37 q-32 32 -77 69q-84 66 -94 174q-6 57 -18 106q-14 57 -47.5 87.5t-105.5 30.5q-119 0 -197 -94q-74 -90 -74 -211q0 -93 54 -203l-134 -2h-376q-104 0 -169 -67q-69 -71 -69 -169zM121 821q0 53 32.5 85t84.5 32q228 0 340 1q111 1 337 1q0 10 -1.5 20.5t-3 19t-5.5 20.5 l-6 18t-8 19.5t-8 17.5t-9.5 19.5t-8.5 18.5q-50 100 -50 169q0 66 39 125q42 61 111 61h11q18 0 20 -10q1 -3 3 -13q10 -44 23 -123q20 -129 112 -206q51 -44 85 -78q32 -35 49 -56q20 -26 42 -48q51 -54 113 -78h4v-643q-19 0 -37.5 -1t-42 -5t-35.5 -6t-41 -9.5t-35 -8.5 t-41 -11t-36 -10q-67 -19 -94 -26t-81 -16.5t-97 -9.5q-99 0 -156 36q-69 44 -69 134q0 30 4 51q-34 17 -53 52.5t-19 74.5t20 68q-59 50 -59 123q0 39 39 78q-119 0 -178 1t-178 1q-52 0 -84.5 30.5t-32.5 81.5zM1524 276q0 33 23.5 56.5t56.5 23.5t56 -23.5t23 -56.5 q0 -34 -22 -56.5t-57 -22.5q-34 0 -57 22t-23 57z" />
<glyph unicode="&#xf0a6;" horiz-adv-x="1597" d="M0 602q0 -78 34 -109q53 -49 191 -62q106 -10 174 -94q33 -42 68 -77q24 -22 37 -33q13 -12 39 -34q3 -3 11.5 -10t12 -10t10 -9t10 -10t8.5 -10t9 -12.5t8 -14.5v-348q0 -50 35 -84.5t84 -34.5h643q49 0 84 35t35 84v374q0 15 1.5 32t3 29.5t5.5 32.5t6.5 30t9 33 t8.5 30t9.5 34t9.5 32q51 171 51 284q0 148 -69 242q-78 104 -221 104q-45 39 -104 56.5t-118 7.5q-44 27 -106 38v201q0 101 -66 169q-67 69 -168 69t-168 -69q-66 -67 -69 -169v-510q-108 53 -203 53q-122 0 -211 -73q-94 -78 -94 -197zM120 591q1 5 1 11q0 69 60 111 q57 39 124 39q65 0 169 -49q5 -2 21 -10.5t22.5 -11t20.5 -9t22.5 -9t20.5 -6t23.5 -5t22.5 -1.5q0 226 1 338t1 340q0 52 31.5 84.5t84.5 32.5q51 0 82 -32.5t31 -84.5q0 -119 1 -178t1 -178q39 39 78 39q74 -2 123 -60q29 21 67 21q39 0 75.5 -19t51.5 -53q23 4 52 4 q89 0 134 -69q36 -57 36 -156q0 -20 -1 -39.5t-5 -42.5t-6 -36t-9 -41t-9 -35t-11 -40.5t-10 -36.5q-1 -4 -7.5 -26t-8 -27.5t-7 -26t-7 -28t-5.5 -25.5t-6 -28t-4.5 -26t-3.5 -28t-2 -26.5t-1 -28.5h-643v4q-18 42 -35 66q-31 43 -90 90q-70 55 -135 134q-77 93 -206 112 q-81 13 -124 22l-12 4q-11 4 -9 20zM1210 -37q0 33 23.5 56.5t56.5 23.5q35 0 57.5 -23t22.5 -57q0 -35 -22.5 -57.5t-57.5 -22.5q-34 0 -57 22.5t-23 57.5z" />
<glyph unicode="&#xf0a7;" horiz-adv-x="1597" d="M0 584q0 -119 94 -197q90 -74 211 -74q93 0 203 54l2 -134v-376q0 -102 67 -169q69 -69 168 -69t168 69q66 66 66 169v200q60 11 106 39q125 -20 222 64q143 0 221 104q69 92 69 242q0 112 -51 285q-1 2 -8.5 28t-9 30t-8 27t-7.5 30t-6 26t-6.5 29t-4 26t-3 29t-0.5 26 v375q0 49 -35 84t-84 35h-643q-49 0 -84 -35t-35 -84v-348q-20 -38 -69 -76q-21 -17 -39 -33q-13 -12 -37 -34q-35 -35 -68 -77q-68 -84 -174 -94q-55 -4 -107 -17q-57 -14 -87.5 -48t-30.5 -106zM120 595q-1 5 1 11q5 8 8 9q5 1 12 3q43 10 125 23q128 19 205 112 q44 51 78 85q25 23 57 49q26 19 48 42q53 49 77 113v5h643q0 -87 47 -252q3 -11 5 -17q1 -4 9 -32.5t9.5 -35t8 -32t8.5 -36t6 -32.5t5.5 -36t3 -32.5t1.5 -35.5q0 -99 -36 -156q-44 -69 -134 -69q-31 0 -52 4q-15 -34 -51.5 -53t-75.5 -19q-38 0 -67 20q-50 -59 -123 -59 q-39 0 -78 39q0 -119 -1 -178t-1 -178q0 -52 -31 -84.5t-82 -32.5q-53 0 -84.5 32.5t-31.5 84.5q0 228 -1 340t-1 338q-13 0 -27.5 -2.5t-25 -5t-26.5 -9t-23.5 -10t-26 -12.5t-24.5 -12q-102 -50 -169 -50q-68 0 -124 40q-60 40 -60 110q0 6 -1 11zM1210 1223q0 34 23.5 57 t56.5 23q35 0 57.5 -22.5t22.5 -57.5q0 -34 -22.5 -57t-57.5 -23q-33 0 -56.5 23.5t-23.5 56.5z" />
<glyph unicode="&#xf0a8;" horiz-adv-x="1597" d="M0 768q0 -163 61.5 -309t172.5 -256q110 -111 256 -172.5t309 -61.5t308.5 61.5t256.5 172.5q110 110 171.5 256t61.5 309t-61 309t-172 257q-111 110 -256.5 171.5t-308.5 61.5t-309 -61.5t-256 -171.5q-111 -111 -172.5 -257t-61.5 -309zM240 768q0 29 20 49l490 490 q23 20 50 20q28 0 48 -20l74 -74q20 -22 20 -49q0 -29 -20 -49l-246 -246h612q29 0 49.5 -20.5t20.5 -49.5v-104q0 -29 -20.5 -48.5t-49.5 -19.5h-612l246 -246q20 -23 20 -50q0 -28 -20 -48l-74 -74q-22 -20 -49 -20q-29 0 -49 20l-490 490q-20 20 -20 49z" />
<glyph unicode="&#xf0a9;" horiz-adv-x="1597" d="M0 768q0 -163 61.5 -309t172.5 -256q110 -111 256 -172.5t309 -61.5t308.5 61.5t256.5 172.5q110 110 171.5 256t61.5 309t-61 309t-172 257q-111 110 -256.5 171.5t-308.5 61.5t-309 -61.5t-256 -171.5q-111 -111 -172.5 -257t-61.5 -309zM240 717v104q0 29 20 48.5 t49 19.5h613l-246 246q-21 22 -20.5 50t20.5 48l74 74q20 20 49 20t49 -20l489 -490q21 -20 20.5 -49t-20.5 -49l-489 -490q-23 -20 -50 -20q-28 0 -48 20l-74 74q-21 21 -20.5 49.5t20.5 48.5l246 246h-613q-28 0 -48.5 20.5t-20.5 49.5z" />
<glyph unicode="&#xf0aa;" horiz-adv-x="1597" d="M0 768q0 -163 61.5 -309t172.5 -256q110 -111 256 -172.5t309 -61.5t308.5 61.5t256.5 172.5q110 110 171.5 256t61.5 309t-61 309t-172 257q-111 110 -256.5 171.5t-308.5 61.5t-309 -61.5t-256 -171.5q-111 -111 -172.5 -257t-61.5 -309zM240 768q0 29 20 49l490 490 q20 20 49 20t49 -20l489 -490q21 -22 20.5 -50t-20.5 -48l-73 -74q-22 -20 -50 -20q-29 0 -49 20l-245 246v-612q0 -29 -20.5 -49.5t-49.5 -20.5h-105q-28 0 -47.5 20.5t-19.5 49.5v612l-246 -246q-23 -20 -50 -20q-28 0 -48 20l-74 74q-20 20 -20 49z" />
<glyph unicode="&#xf0ab;" horiz-adv-x="1597" d="M0 768q0 -163 61.5 -309t172.5 -256q110 -111 256 -172.5t309 -61.5t308.5 61.5t256.5 172.5q110 110 171.5 256t61.5 309t-61 309t-172 257q-111 110 -256.5 171.5t-308.5 61.5t-309 -61.5t-256 -171.5q-111 -111 -172.5 -257t-61.5 -309zM240 769q0 28 20 48l74 74 q20 20 49 20t49 -20l246 -246v612q0 29 20.5 49.5t49.5 20.5h104q29 0 48.5 -20.5t19.5 -49.5v-612l245 246q23 20 51 20t48 -20l73 -74q21 -20 20.5 -49t-20.5 -49l-489 -490q-22 -20 -49 -20q-29 0 -49 20l-490 490q-20 23 -20 50z" />
<glyph unicode="&#xf0ac;" horiz-adv-x="1597" d="M0 768q0 159 62.5 305t174.5 258t256.5 174t305.5 62q159 0 305 -62.5t257 -173.5t173.5 -257t62.5 -306q0 -161 -62 -305.5t-174 -256.5t-257.5 -174.5t-304.5 -62.5q-161 0 -305.5 62.5t-256.5 174.5t-174.5 256.5t-62.5 305.5zM186 1141h4q4 0 13 3q8 3 8 -9 q0 -4 -3 -10q-3 -7 11 -7q3 0 5 6t3 0l4 -16v-2q0 -4 -5 -6q-8 -4 1 -8l6 -2h9l4 2l2 2q0 -11 16 -11h2q0 -3 -4 -4t0 -6l23 -4v-2l14 -29q0 -4 -3.5 -10t-6.5 -6q-5 0 -3 3q1 2 1 7q0 3 -2 7q-1 3 -15 3q-10 0 -6 -6l12 -26l3 -2l2 -2q-8 0 -12.5 -21t-4.5 -37l4 -18l2 -6 v-4l-4 -19l29 -43h6q1 -4 -2 -8t-2 -8l8 -8q0 -6 2.5 -11t4 -6.5t10.5 -9.5q-1 -12 21 -22q21 -10 28 -15q21 -58 49 -84l2 -14q0 -2 -5 -4t-1 -6l16 -7q4 4 11 -8q6 -12 10 -16l-2 -6l12 -17l6 -2l4 8q-7 19 -34 59q-12 17 -18 28q-7 11 -7 14q0 25 -6 33q5 -4 15 -7 q13 -7 15 -8q5 -26 20 -40q16 -16 27 -34q-3 -3 0 -4.5t7 -1.5q4 -4 4 -14q59 -65 59 -88v-2l-4 -14q9 -24 49 -41h4q13 -7 41 -21q24 -14 43 -20l23 14q9 -2 38 -28q29 -27 62 -31q14 11 14 -5v-4l25 -30l4 -15q27 -17 37 -35h4q9 0 17 -9q6 -9 16 -9q6 0 6 6q0 13 2 19 q3 6 11 6q3 0 3 4l-4 6q-4 0 -6 -5t-6 -1l-14 -8l-17 4l-24 41l8 57q2 5 -7 9q-11 5 -6 10q-14 8 -34 8q-4 0 -20 -3q-17 -3 -17 3t10 38q4 10 6 19q0 2 1 5q1 2 1 3v2l13 27l-3 4l-16 4q-10 0 -30 -20q-21 -21 -21 -31l-45 -10q-14 0 -23 12q-5 19 -17 36q-13 19 -13 34 q0 22 8 43q8 20 -6 43q3 0 5.5 2.5t0.5 5.5l12 14l2 2l2 -2q13 10 37 7q23 -3 29 14l16 -13q3 -2 8.5 4.5t5.5 10.5l-8 4l39 10l2 -6l19 2l22 -14q3 0 8 5t9 1l20 -21q-4 -7 -1 -12t3 -8q0 -8 11 -28.5t18 -20.5q10 0 9 13q-1 9 -1 17q0 18 -8 39l-15 39v6q0 11 13 18 q12 7 12 9q20 14 23 16q11 7 18 19l8 16v10h6q4 0 4 6q0 3 -3 4q-8 4 -15 11l6 4q11 18 4 31l15 8q-2 -6 4 -8.5t10 0.5l10 16q-2 6 -5 7v1q2 2 5 6q10 4 20 10q10 5 19 5q2 -2 4 -2q6 0 6 2q0 11 -4 12l12 25q13 0 21 12l18 2q6 1 6 8v2l35 10l4 11l-10 14q2 0 2 4 q0 5 -4 6q-2 1 -4 2.5t-3 1.5t-3 1.5t-4 2.5h6h13q9 0 9 9q0 12 -14 12q-22 0 -44 -9.5t-30 -27.5l-14 -8l18 18l3 6q0 4 -9 6q-3 0 -6 1q28 0 43 13q17 14 31 19q19 -4 44 -2q28 2 44 2q17 11 20 19l23 4q3 -3 11.5 2.5t8.5 9.5q0 10 -11 13t-11 14q0 3 1 6q1 4 -3 4 q-13 0 -39 -16q-3 -2 -4.5 0.5t-1.5 7.5l2 -2l8 4l23 8l4 4q0 10 -19 10q-5 0 -12 -3q-8 -3 -8 3l2 4q-11 9 -21 22t-10 17q0 6 1 9q1 2 -0.5 3t-4.5 1q-5 0 -7 -1q-1 -1 -2 0.5t-1 4.5q0 6 -5.5 18t-13.5 12l-8 -8q0 -6 -6 -9t-6 -7h-4l-21 -12q-1 4 -5 2t-6 -2q4 4 2 10 t-7 6l-16 -4q-7 0 -2 5q7 10 4 15q-1 4 -6 1t-5 1h6l5 5q4 4 -7 14l-22 4l-14 12q-2 -2 -7 3q-9 7 -10 7l-16 -6l-39 9q-12 0 -12 -9q0 -5 4 -6t4 -6q0 -4 3 -21q1 -15 -5 -14l-10 -14q1 -3 7 -7q12 -7 19 -18q4 -5 2 -18l-45 -31v-4q0 -8 4 -15q1 -2 8 -18q16 -6 3 -13 q-5 -2 -13 -6q-6 -3 -6 -5t-4 -2h-8h-4q0 1 2 3t2 5l-19 12v-2l-8 16q4 10 1 15t-3 10q0 16 -14 16q-16 0 -31 -4q2 2 0.5 4.5t-4 4.5t-4.5 2q-15 0 -38 14t-36 14q-11 0 -29 -6q3 1 5 10l-13 23l-2 2q-6 0 -14 -5q-4 -2 -6 0t-2 9q0 2 2 4t0 4q-2 13 5 21q6 6 11 18 q4 4 4 8t4 4q8 0 16 5t17 6l2 6q0 4 -21 7q-22 3 -22 7l2 2q16 -5 31 -7q14 -1 34 10q16 8 29 14q0 3 -7 4h7l15 10v6l-4 6l22 4q-1 2 -0.5 3t2.5 2t4 1q6 0 13 -6q6 -6 8 -6l20 8q-1 2 6 3t4 6l-14 16q-2 2 -2 6q10 0 6 10q-1 1 -7 4.5t-10 5.5q-10 5 -20 5q-14 0 -14 -9 q0 -4 5 -4q6 0 7 -4q4 -4 -2 -4t-6 -2q-8 0 -15 -12q-8 -13 -18 -17q-5 0 -3 3q2 1 -1 4q-1 3 -7 5q-5 2 -5 5t5 13q2 5 -1 7t-12 2q-8 0 -11 -6q-1 -2 -3.5 -6t-4.5 -6l-22 25l-17 2q0 9 4 14q3 7 -21 24q-4 3 -11 3q-2 0 -23 -13q-6 -4 -6 -8t10 -4h-2q-6 0 -6 -8 q0 -2 9.5 -5t13.5 -3q5 2 6 -1q1 -4 6 -4l8 3v-5q-2 -2 -2 -4l2 -8l-20 -10q-2 -2 -4 -2q-1 0 -5 -2q0 -6 6 -12q2 -4 -1 -5.5t-11 -1.5l-6 4q0 8 -16 14q-25 8 -87 10q-16 1 -36 1l-33 -10l8 -19q-8 0 -4 -6q-23 23 -28 23l-17 4q-61 -4 -162 -105q-75 -75 -129 -155z M487 1413q13 1 26 8q11 6 24 6l6 -4q8 -2 11 -2q5 0 9 -4q9 2 17 -2l6 4v8l-2 5l6 -2q6 0 12 10l-2 4q-10 6 -20 6q-3 0 -16 -5q-45 -19 -58 -24q-15 -7 -19 -8zM776 1364h12q11 0 21 -6q0 -2 3 -4q-1 1 -4 1.5t-4 0.5q-24 5 -28 8zM918 86q0 -4 3 -9t3 -9q0 -5 -2 -7 q238 42 399 215h-2q-8 -5 -14 0l-5 -4l-12 4h-4l-4 -8l2 8q-4 5 -14 15l-4 2q-3 0 -4 -4q1 14 -9.5 24.5t-25.5 10.5q0 -2 -2 -2h-4l-5 4h7l4 12l-11 8l-2 -2q-14 2 -20 16l-4 2l-2 -2l-4 -2q-20 -8 -21 -8q-13 5 -18 10l-27 -2q0 19 -16 19q-30 0 -35 -15q0 -8 6 -14v-8 l-2 -6l-4 -2h-2l-6 16l6 10q-2 6 -2 11q0 4 -2 10l-2 4h-6l-15 -10h-8l-4 -4q-2 -2 -2 -4q0 -1 -2 -3l-2 3h-8q-7 -7 -9 -19l3 -4l-9 -6l-2 -4l-6 -4q0 -2 -1 -2t-1 -2v-11l-2 -2v4l-2 2q-1 12 -23 21h-6v-4q1 -5 9 -10q4 -3 10 -9q-1 1 -3 1.5t-3.5 -1t-1.5 -2.5v-4l14 -20 v-39l4 -10q-5 -17 -16 -27v2l-4 -2l-3 -2l-2 -10l2 -2v-2l-4 4l-2 -13l-12 -4q-6 -5 -5 -11t-5 -11l2 -4l-6 -6q0 -5 -1 -6q-1 -2 -1 -7l2 -14l6 -4l4 4l2 6l2 -12q0 -4 -4 -8q-18 -11 -18 -25z" />
<glyph unicode="&#xf0ad;" horiz-adv-x="1593" d="M8 242q0 -36 17 -68q30 -55 93 -110q36 -34 50 -48q47 -47 115 -47q65 0 112 47l606 607q68 -17 127 -17q183 0 320 124q134 123 154 308l-443 -159l-184 153l43 236l442 162q-67 65 -154.5 101t-181.5 36q-97 0 -185 -38q-178 -78 -254 -255q-61 -141 -21 -309 l-609 -609q-47 -47 -47 -114zM203 242q0 34 22.5 57t57.5 23q33 0 56 -22.5t23 -57.5q0 -33 -23 -56.5t-56 -23.5q-35 0 -57.5 23t-22.5 57z" />
<glyph unicode="&#xf0ae;" d="M0 76q0 -31 22.5 -53.5t53.5 -22.5h1689q33 0 55.5 22.5t22.5 53.5v217q0 31 -22.5 53.5t-55.5 22.5h-1689q-31 0 -53.5 -22.5t-22.5 -53.5v-217zM0 662q0 -33 22.5 -55.5t53.5 -22.5h1689q33 0 55.5 22.5t22.5 55.5v215q0 30 -22.5 52.5t-55.5 22.5h-1689 q-31 0 -53.5 -22t-22.5 -53v-215zM0 1243q0 -31 22.5 -53.5t53.5 -22.5h1689q33 0 55.5 22.5t22.5 53.5v217q0 31 -22.5 53.5t-55.5 22.5h-1689q-31 0 -53.5 -22.5t-22.5 -53.5v-217zM752 692v154h999v-154h-999zM1059 109v153h692v-153h-692zM1366 1274v153h385v-153h-385z " />
<glyph unicode="&#xf0b0;" horiz-adv-x="1566" d="M0 1458q0 -32 23 -55l565 -565v-555q-1 -33 22 -56l236 -235q23 -23 55 -23q33 0 55.5 22.5t22.5 55.5v791l565 565q23 23 23 55q0 33 -22.5 55.5t-55.5 22.5h-1411q-33 0 -55.5 -22.5t-22.5 -55.5z" />
<glyph unicode="&#xf0b1;" d="M0 115q0 -47 34 -81t81 -34h1614q47 0 80.5 34t33.5 81v512h-713q3 -8 3 -19v-153q0 -56 -39.5 -96t-94.5 -40h-153q-57 0 -96 40t-39 96v153q0 11 2 19h-713v-512zM0 743h1843v371q0 47 -33.5 81t-80.5 34h-422v231q0 31 -22.5 53.5t-55.5 22.5h-615q-32 0 -53.5 -22.5 t-21.5 -53.5v-231h-424q-47 0 -81 -34t-34 -81v-371zM692 1229v153h461v-153h-461zM825 455q1 -19 21 -19h153q19 1 19 19v153q-1 19 -19 19h-153q-21 -1 -21 -19v-153z" />
<glyph unicode="&#xf0b2;" horiz-adv-x="1536" d="M0 80q0 -36 25 -55q24 -25 55 -25h477q51 0 61.5 24.5t-24.5 59.5l-162 162l340 340l336 -336l-166 -166q-35 -35 -24.5 -59.5t61.5 -24.5h477q33 0 55 25q25 19 25 55v477q0 51 -24.5 61.5t-59.5 -24.5l-158 -160l-338 336l334 334l162 -162q35 -35 59.5 -24.5 t24.5 61.5v477q0 32 -23.5 56t-56.5 24h-477q-51 0 -61.5 -24.5t24.5 -59.5l162 -162l-332 -334l-338 338l160 158q35 35 24.5 59.5t-61.5 24.5h-477q-29 0 -57 -23q-23 -26 -23 -57v-477q0 -51 24.5 -60.5t59.5 25.5l164 164l338 -338l-340 -338l-162 162 q-35 35 -59.5 24.5t-24.5 -61.5v-477z" />
</font>
</defs>
</svg>
